<svg width="356" height="250" viewBox="0 0 356 250" fill="none" xmlns="http://www.w3.org/2000/svg">
<path d="M336.004 1.14441e-05H50.0444C39.5544 1.14441e-05 31.0244 8.52998 31.0244 19.02V214.98C31.0244 225.47 39.5544 234 50.0444 234H336.004C346.494 234 355.024 225.47 355.024 214.98V19.02C355.024 8.52997 346.494 1.14441e-05 336.004 1.14441e-05Z" fill="#F2F2F2"/>
<path d="M304.98 15.0938H19.02C8.53003 15.0938 0 23.6237 0 34.1137V230.074C0 240.564 8.53003 249.094 19.02 249.094H304.98C315.47 249.094 324 240.564 324 230.074V34.1137C324 23.6237 315.47 15.0938 304.98 15.0938ZM322 172.397C322 213.651 288.557 247.094 247.304 247.094H19.02C9.62012 247.094 2 239.474 2 230.074V34.1137C2 24.7138 9.62009 17.0938 19.02 17.0938H304.98C314.38 17.0938 322 24.7139 322 34.1138V172.397Z" fill="#3F3D56"/>
<path d="M40.8457 206.627L39.1533 205.562C40.2534 203.813 41.3887 202.119 42.5264 200.524L44.1543 201.687C43.0386 203.249 41.9258 204.911 40.8457 206.627Z" fill="#CCCCCC"/>
<path d="M51.873 192.374L50.4414 190.978C53.4932 187.85 56.7051 185.165 59.9873 182.998L61.0898 184.667C57.9263 186.755 54.8252 189.349 51.873 192.374ZM101.769 179.75C99.3804 179.75 97.2046 179.444 95.5757 179.178L95.8989 177.204C97.5493 177.474 99.5371 177.75 101.769 177.75C103.739 177.75 105.676 177.534 107.69 177.088L108.122 179.041C105.964 179.518 103.886 179.75 101.769 179.75ZM71.8423 179.485L71.2407 177.578C73.3892 176.9 75.6147 176.393 77.8555 176.068C79.7798 175.79 81.6196 175.654 83.4795 175.654H83.6025V177.654H83.4795C81.7163 177.654 79.9707 177.783 78.1421 178.047C76.0078 178.356 73.8877 178.84 71.8423 179.485ZM119.514 173.706L118.235 172.167C120.995 169.875 122.973 167.103 125.068 164.168L125.903 163L127.526 164.169L126.696 165.33C124.524 168.373 122.472 171.248 119.514 173.706ZM135.553 155.368L134.322 153.791C137.018 151.687 140.064 149.982 143.633 148.58C144.241 148.34 144.822 148.127 145.38 147.937L146.025 149.83C145.495 150.011 144.943 150.213 144.365 150.441C140.977 151.772 138.095 153.384 135.553 155.368ZM159.698 148.421C159.025 148.421 158.387 148.415 157.773 148.408L157.797 146.408C158.424 146.415 159.078 146.416 159.771 146.421C162.124 146.421 165.402 146.354 169.898 145.833L170.128 147.82C165.484 148.358 162.154 148.414 159.698 148.421ZM182.294 145.802L181.898 143.842C185.49 143.115 189.669 142.25 193.806 141.183L194.306 143.12C190.122 144.199 185.912 145.07 182.294 145.802ZM206.087 139.328L205.339 137.473C209.35 135.856 212.832 134.033 215.985 131.898L217.106 133.555C213.834 135.77 210.23 137.658 206.087 139.328ZM226.295 125.037L224.672 123.868C225.23 123.094 225.712 122.338 226.179 121.608C227.556 119.452 228.98 117.222 232.371 114.484L232.608 114.294L233.848 115.864L233.627 116.04C230.49 118.573 229.215 120.57 227.864 122.685C227.383 123.438 226.885 124.217 226.295 125.037ZM244.237 110.037L243.507 108.175C247.072 106.777 251.098 105.653 255.473 104.832L255.842 106.798C251.59 107.596 247.685 108.686 244.237 110.037Z" fill="#CCCCCC"/>
<path d="M268.067 105.33L267.942 103.333C269.886 103.212 271.917 103.132 273.981 103.095L274.018 105.095C271.983 105.131 269.981 105.21 268.067 105.33Z" fill="#CCCCCC"/>
<path d="M63.1474 36.7656H35.0873C33.6774 36.7656 32.5273 37.9157 32.5273 39.3256C32.5273 40.7456 33.6774 41.8956 35.0873 41.8956H63.1474C64.5574 41.8956 65.7074 40.7456 65.7074 39.3256C65.7074 37.9157 64.5574 36.7656 63.1474 36.7656Z" fill="#E6E6E6"/>
<path d="M110.147 36.7656H82.0873C80.6774 36.7656 79.5273 37.9157 79.5273 39.3256C79.5273 40.7456 80.6774 41.8956 82.0873 41.8956H110.147C111.557 41.8956 112.707 40.7456 112.707 39.3256C112.707 37.9157 111.557 36.7656 110.147 36.7656Z" fill="#E6E6E6"/>
<path d="M157.147 36.7656H129.087C127.677 36.7656 126.527 37.9157 126.527 39.3256C126.527 40.7456 127.677 41.8956 129.087 41.8956H157.147C158.557 41.8956 159.707 40.7456 159.707 39.3256C159.707 37.9157 158.557 36.7656 157.147 36.7656Z" fill="#E6E6E6"/>
<path d="M287.5 205.094H32.5V207.094H287.5V205.094Z" fill="#E6E6E6"/>
<path d="M274.03 59.0947C255.88 59.5647 242.34 64.9047 233.76 74.9447C230.59 78.6647 229.3 81.5947 227.94 84.6947C226.59 87.7547 225.21 90.9047 222 95.0147V91.6147C223.99 88.6947 225.06 86.2547 226.11 83.8847C227.53 80.6447 228.88 77.5847 232.24 73.6547C241.2 63.1547 255.24 57.5847 273.97 57.0947L274.03 59.0947Z" fill="#CCCCCC"/>
<path d="M227.94 84.6938C226.59 87.7538 225.21 90.9039 222 95.0139C221.62 95.5038 221.21 96.0138 220.77 96.5439C209.19 110.314 193.72 114.834 181.28 118.474C180.5 118.704 179.74 118.914 179 119.114C167.94 122.114 161.88 122.004 157.37 121.934C152.84 121.854 149.85 121.804 144.5 124.864C134.69 130.454 130.67 138.634 126.78 146.544C122.77 154.684 118.99 162.374 109.35 165.984C102.66 168.484 97.9601 167.244 92.9901 165.944C88.72 164.814 81.0243 137 74.2101 132.944C60.1401 135.894 51.5901 181.874 40.9201 206.494L39.0801 205.694C50.0301 180.454 59.05 134.084 73.79 130.984C80.36 129.604 89.0101 162.824 93.5001 164.004C98.16 165.234 102.55 166.384 108.65 164.104C117.55 160.784 120.99 153.774 124.98 145.664C128.82 137.864 133.17 129.024 143.5 123.124C149.33 119.794 152.72 119.854 157.4 119.934C161.86 120.014 167.88 120.114 179 117.044C179.56 116.884 180.13 116.724 180.72 116.554C192.9 112.994 208.05 108.564 219.23 95.2639C220.33 93.9539 221.24 92.7438 222 91.6138C223.99 88.6938 225.06 86.2538 226.11 83.8838C227.53 80.6439 229.3 81.5939 227.94 84.6938Z" fill="#6C63FF"/>
</svg>
