<svg width="384" height="384" viewBox="0 0 384 384" fill="none" xmlns="http://www.w3.org/2000/svg">
<path d="M383.999 192C383.986 227.632 374.067 262.559 355.351 292.879C336.634 323.199 309.857 347.719 278.009 363.7C276.379 364.52 274.733 365.317 273.069 366.09C230.083 386.039 181.254 389.453 135.909 375.68C131.459 374.32 127.079 372.807 122.769 371.14C83.355 355.893 50.0698 328.072 28.0721 291.988C6.07443 255.904 -3.40751 213.572 1.09568 171.552C5.59887 129.532 23.8358 90.1709 52.9802 59.5677C82.1246 28.9645 120.549 8.82847 162.299 2.28001C172.126 0.759455 182.055 -0.0027929 191.999 7.68904e-06C298.039 7.68904e-06 383.999 85.9599 383.999 192Z" fill="#F2F2F2"/>
<path d="M339.368 159.987C339.261 159.987 339.156 159.954 339.068 159.892L193.511 58.5221C193.068 58.2151 192.541 58.051 192.002 58.0519C191.463 58.0528 190.938 58.2187 190.496 58.5273L45.9869 159.891C45.8726 159.972 45.7311 160.003 45.5936 159.979C45.4561 159.955 45.3338 159.877 45.2537 159.763C45.1735 159.648 45.142 159.507 45.1661 159.369C45.1903 159.232 45.268 159.11 45.3823 159.029L189.891 57.6653C190.51 57.2334 191.246 57.0012 192.001 57C192.755 56.9988 193.492 57.2285 194.112 57.6584L339.67 159.028C339.762 159.092 339.831 159.184 339.867 159.29C339.903 159.396 339.904 159.511 339.871 159.618C339.837 159.725 339.77 159.818 339.68 159.885C339.59 159.951 339.481 159.987 339.368 159.987Z" fill="#3F3D56"/>
<path d="M54.2441 163.58L192.145 61.3784L331.093 170.852L199.25 249.01L127.672 232.694L54.2441 163.58Z" fill="#E6E6E6"/>
<path d="M133.714 297.285H65.5873C65.169 297.285 64.7547 297.203 64.368 297.044C63.9814 296.884 63.6301 296.649 63.3341 296.354C63.0381 296.058 62.8033 295.707 62.6431 295.321C62.4829 294.934 62.4004 294.52 62.4004 294.102C62.4004 293.683 62.4829 293.269 62.6431 292.883C62.8033 292.496 63.0381 292.145 63.3341 291.85C63.6301 291.554 63.9814 291.32 64.368 291.16C64.7547 291 65.169 290.918 65.5873 290.919H133.714C134.132 290.918 134.546 291 134.933 291.16C135.32 291.32 135.671 291.554 135.967 291.85C136.263 292.145 136.498 292.496 136.658 292.883C136.818 293.269 136.901 293.683 136.901 294.102C136.901 294.52 136.818 294.934 136.658 295.321C136.498 295.707 136.263 296.058 135.967 296.354C135.671 296.649 135.32 296.884 134.933 297.044C134.546 297.203 134.132 297.285 133.714 297.285Z" fill="#1760A5"/>
<path d="M90.0296 283.601H65.5873C65.169 283.601 64.7547 283.519 64.368 283.359C63.9814 283.2 63.6301 282.965 63.3341 282.67C63.0381 282.374 62.8033 282.023 62.6431 281.637C62.4829 281.25 62.4004 280.836 62.4004 280.418C62.4004 279.999 62.4829 279.585 62.6431 279.199C62.8033 278.812 63.0381 278.461 63.3341 278.166C63.6301 277.87 63.9814 277.636 64.368 277.476C64.7547 277.316 65.169 277.234 65.5873 277.235H90.0296C90.4479 277.234 90.8622 277.316 91.2489 277.476C91.6355 277.636 91.9868 277.87 92.2828 278.166C92.5788 278.461 92.8136 278.812 92.9738 279.199C93.134 279.585 93.2165 279.999 93.2165 280.418C93.2165 280.836 93.134 281.25 92.9738 281.637C92.8136 282.023 92.5788 282.374 92.2828 282.67C91.9868 282.965 91.6355 283.2 91.2489 283.359C90.8622 283.519 90.4479 283.601 90.0296 283.601Z" fill="#1760A5"/>
<path d="M194.085 220.505C193.567 220.506 193.054 220.405 192.575 220.209L107.527 184.921V74.4606C107.528 73.4838 107.917 72.5474 108.608 71.8567C109.298 71.166 110.235 70.7775 111.212 70.7764H274.369C275.346 70.7775 276.283 71.166 276.973 71.8567C277.664 72.5474 278.053 73.4838 278.054 74.4606V184.998L277.894 185.066L195.641 220.192C195.148 220.399 194.619 220.506 194.085 220.505Z" fill="white"/>
<path d="M194.085 220.768C193.533 220.769 192.986 220.662 192.474 220.453L107.264 185.096V74.4606C107.265 73.414 107.681 72.4107 108.421 71.6707C109.161 70.9306 110.164 70.5144 111.211 70.5132H274.369C275.415 70.5144 276.419 70.9306 277.159 71.6707C277.899 72.4107 278.315 73.414 278.316 74.4606V185.171L195.744 220.434C195.219 220.655 194.654 220.769 194.085 220.768ZM108.316 184.393L192.876 219.48C193.665 219.8 194.548 219.795 195.333 219.465L277.264 184.476V74.4606C277.263 73.6931 276.958 72.9573 276.415 72.4147C275.872 71.872 275.136 71.5667 274.369 71.5658H111.211C110.444 71.5667 109.708 71.872 109.165 72.4147C108.623 72.9573 108.317 73.6931 108.316 74.4606L108.316 184.393Z" fill="#3F3D56"/>
<path d="M338.316 158.934H338.21L277.789 184.734L195.121 220.034C194.798 220.17 194.451 220.241 194.101 220.243C193.751 220.244 193.403 220.177 193.079 220.045L107.789 184.66L45.8841 158.976L45.7896 158.934H45.6842C44.7074 158.935 43.771 159.324 43.0803 160.014C42.3896 160.705 42.0011 161.642 42 162.618V322.618C42.0011 323.595 42.3896 324.532 43.0803 325.222C43.771 325.913 44.7074 326.301 45.6842 326.303H338.316C339.293 326.301 340.229 325.913 340.92 325.222C341.61 324.532 341.999 323.595 342 322.618V162.618C341.999 161.642 341.61 160.705 340.92 160.014C340.229 159.324 339.293 158.935 338.316 158.934ZM340.947 322.618C340.947 323.316 340.67 323.985 340.176 324.479C339.683 324.972 339.014 325.25 338.316 325.25H45.6842C44.9864 325.25 44.3172 324.972 43.8237 324.479C43.3303 323.985 43.0529 323.316 43.0526 322.618V162.618C43.0536 161.938 43.3176 161.284 43.7894 160.794C44.2612 160.303 44.9043 160.014 45.5842 159.987L107.789 185.797L192.674 221.018C193.593 221.392 194.622 221.386 195.537 221.003L277.789 185.876L338.421 159.987C339.1 160.016 339.741 160.306 340.212 160.796C340.682 161.286 340.946 161.939 340.947 162.618V322.618Z" fill="#3F3D56"/>
<path d="M193.235 189.182C190.095 189.188 187.039 188.173 184.527 186.29L184.371 186.173L151.576 161.063C150.057 159.9 148.782 158.448 147.824 156.792C146.867 155.136 146.244 153.307 145.993 151.41C145.742 149.513 145.867 147.585 146.361 145.737C146.855 143.888 147.708 142.155 148.872 140.636C150.036 139.117 151.487 137.843 153.143 136.885C154.8 135.927 156.629 135.305 158.525 135.054C160.422 134.803 162.35 134.928 164.198 135.421C166.047 135.915 167.78 136.769 169.299 137.932L190.541 154.221L240.74 88.7539C241.904 87.2354 243.356 85.9612 245.013 85.0039C246.67 84.0466 248.499 83.425 250.396 83.1746C252.293 82.9242 254.22 83.0499 256.069 83.5445C257.917 84.0391 259.65 84.893 261.168 86.0573L260.856 86.4811L261.176 86.0634C264.239 88.4174 266.243 91.8902 266.749 95.7199C267.254 99.5496 266.22 103.423 263.873 106.492L204.827 183.496C203.461 185.271 201.705 186.707 199.695 187.693C197.685 188.679 195.474 189.188 193.235 189.182Z" fill="#1760A5"/>
</svg>
