<svg width="430" height="384" viewBox="0 0 430 384" fill="none" xmlns="http://www.w3.org/2000/svg">
<path d="M392.656 192C392.642 227.632 382.724 262.559 364.007 292.879C345.29 323.199 318.513 347.719 286.666 363.7C285.036 364.52 283.389 365.317 281.726 366.09C238.739 386.039 189.91 389.453 144.566 375.68C140.116 374.32 135.736 372.807 131.426 371.14C92.0112 355.893 58.7261 328.072 36.7284 291.988C14.7307 255.904 5.24874 213.572 9.75193 171.552C14.2551 129.532 32.492 90.1709 61.6365 59.5677C90.7809 28.9645 129.205 8.82847 170.956 2.28001C180.782 0.759455 190.712 -0.0027929 200.656 7.68904e-06C306.696 7.68904e-06 392.656 85.9599 392.656 192Z" fill="#F2F2F2"/>
<path d="M397.197 187.059C401.981 190.546 407.85 192.22 413.755 191.78C419.66 191.34 425.216 188.815 429.431 184.657C430.281 183.813 429.009 182.452 428.158 183.297C424.24 187.177 419.064 189.528 413.565 189.926C408.065 190.325 402.605 188.744 398.168 185.47C397.204 184.76 396.237 186.352 397.197 187.059Z" fill="white"/>
<path d="M424.418 140.149C422.286 139.185 420.426 137.707 419.006 135.847C417.586 133.987 416.65 131.803 416.282 129.492C416.098 128.306 414.288 128.75 414.472 129.928C414.89 132.479 415.927 134.89 417.491 136.948C419.055 139.007 421.1 140.651 423.446 141.737C423.659 141.858 423.91 141.894 424.147 141.836C424.385 141.779 424.592 141.633 424.727 141.429C424.854 141.218 424.893 140.965 424.836 140.726C424.778 140.486 424.628 140.279 424.418 140.149Z" fill="white"/>
<path d="M0.640833 206.919C2.34227 206.15 3.82613 204.97 4.9591 203.486C6.09207 202.002 6.83871 200.26 7.13195 198.416C7.27946 197.47 8.72287 197.824 8.57632 198.764C8.24285 200.8 7.41591 202.723 6.16778 204.365C4.91965 206.008 3.28829 207.319 1.41625 208.186C1.24664 208.282 1.04666 208.311 0.856958 208.265C0.667252 208.219 0.502039 208.103 0.394922 207.94C0.293096 207.772 0.261809 207.57 0.307855 207.379C0.353902 207.188 0.473562 207.022 0.640833 206.919Z" fill="white"/>
<path d="M99.1409 250.994C106.139 244.34 110.372 235.292 110.996 225.656C111.057 224.701 112.535 224.846 112.474 225.799C111.807 235.826 107.382 245.233 100.085 252.142C99.3888 252.8 98.4487 251.649 99.1409 250.994Z" fill="white"/>
<path d="M207.438 152.211C240.08 152.211 266.541 125.749 266.541 93.1071C266.541 60.465 240.08 34.0034 207.438 34.0034C174.796 34.0034 148.334 60.465 148.334 93.1071C148.334 125.749 174.796 152.211 207.438 152.211Z" fill="#2F2E41"/>
<path d="M212.329 152.196C238.855 152.196 260.358 130.693 260.358 104.168C260.358 77.6427 238.855 56.1396 212.329 56.1396C185.804 56.1396 164.301 77.6427 164.301 104.168C164.301 130.693 185.804 152.196 212.329 152.196Z" fill="#FFB6B6"/>
<path d="M244.945 55.2099C236.529 50.0791 226.889 47.3037 217.033 47.1737C207.177 47.0438 197.468 49.5641 188.919 54.4712C180.371 59.3783 173.298 66.4919 168.44 75.0682C163.581 83.6445 161.117 93.3685 161.303 103.223C185.776 109.368 211.486 114.07 237.585 104.693L243.748 89.6088L247.382 104.704C255.33 107.953 263.298 110.702 271.267 104.673C271.592 94.8458 269.332 85.1054 264.713 76.4253C260.094 67.7453 253.278 60.4297 244.945 55.2099Z" fill="#2F2E41"/>
<path d="M329.786 334.1C316.826 345.882 302.319 355.84 286.666 363.7L283.356 353.04L280.686 363.43L281.726 366.09C280.576 366.63 279.416 367.15 278.256 367.66C277.266 368.1 276.276 368.53 275.286 368.95C239.033 384.179 198.99 387.962 160.526 379.79C159.516 379.58 158.516 379.36 157.516 379.13C153.146 378.13 148.826 376.97 144.566 375.68L150.526 353.52L145.226 326.73L131.426 371.14C115.762 365.076 100.962 356.98 87.4062 347.06C91.6462 319.65 96.6162 286.75 99.6862 263.98C100.796 255.66 101.656 248.7 102.136 243.84C102.525 239.286 103.417 234.788 104.796 230.43C105.473 228.322 106.34 226.281 107.386 224.33C107.606 223.9 107.846 223.49 108.086 223.09C108.316 222.7 108.556 222.33 108.806 221.97C114.946 212.82 122.826 213.38 122.826 213.38L146.346 208.79L153.696 207.35L156.686 206.77L160.346 206.05C163.142 205.505 165.792 204.379 168.126 202.746C170.46 201.113 172.426 199.009 173.896 196.57L183.886 179.98C186.003 176.473 189.125 173.682 192.846 171.97C193.296 171.77 193.756 171.58 194.216 171.4C196.248 170.639 198.388 170.21 200.556 170.13L214.696 169.58L220.416 169.35L228.226 169.05C230.069 168.977 231.913 169.158 233.706 169.59H233.716C234.346 169.74 234.946 169.91 235.556 170.12C240.281 171.715 244.256 174.989 246.726 179.32L253.706 191.56C255.277 194.313 257.467 196.662 260.104 198.421C262.741 200.179 265.751 201.298 268.896 201.69L271.576 202.02L274.586 202.4L282.196 203.35L296.096 205.09L296.126 205.62C298.786 205.83 306.366 207.39 311.446 218.22C311.786 218.93 312.106 219.69 312.416 220.48C314.195 225.282 315.329 230.299 315.786 235.4C315.816 235.62 315.836 235.84 315.856 236.06C317.556 253.39 324.146 297.58 329.786 334.1Z" fill="#2F2E41"/>
<path d="M216.535 379.42L215.586 383.85L212.656 383.22L213.528 379.157C216.277 366.336 217.519 353.238 217.228 340.129L213.546 174.39L213.476 171.41L213.436 169.6L214.956 169.57L216.436 169.54L216.586 176.42L220.229 340.427C220.519 353.524 219.28 366.611 216.535 379.42Z" fill="#1760A5"/>
<path d="M99.0057 268.939L141.186 274.699L144.136 275.099L145.936 275.349L145.726 276.849L145.516 278.319L138.696 277.389L98.5957 271.909L99.0057 268.939Z" fill="#1760A5"/>
<path d="M224.887 192.34L220.417 189.35L214.957 189.57L214.697 189.58L213.477 191.41L213.547 194.39L216.587 196.42L220.437 198.99C220.873 199.284 221.363 199.489 221.879 199.593C222.395 199.697 222.926 199.698 223.443 199.596C223.959 199.494 224.45 199.292 224.888 199C225.326 198.708 225.702 198.333 225.995 197.896C226.288 197.458 226.491 196.968 226.594 196.451C226.696 195.935 226.696 195.404 226.593 194.888C226.49 194.372 226.287 193.881 225.994 193.444C225.701 193.007 225.325 192.632 224.887 192.34ZM224.327 196.78C224.106 197.108 223.793 197.364 223.427 197.515C223.062 197.665 222.659 197.704 222.272 197.626C221.884 197.548 221.528 197.357 221.248 197.077C220.969 196.797 220.779 196.441 220.702 196.053C220.626 195.665 220.666 195.263 220.817 194.897C220.969 194.532 221.225 194.22 221.554 194C221.883 193.78 222.27 193.663 222.665 193.663C223.061 193.663 223.448 193.78 223.777 194C224.217 194.297 224.522 194.756 224.625 195.277C224.728 195.798 224.621 196.338 224.327 196.78Z" fill="#1760A5"/>
</svg>
