<svg width="400" height="394" viewBox="0 0 400 394" fill="none" xmlns="http://www.w3.org/2000/svg">
<path d="M186.433 372.956C289.397 372.956 372.867 289.487 372.867 186.523C372.867 83.5589 289.397 0.0898438 186.433 0.0898438C83.469 0.0898438 0 83.5589 0 186.523C0 289.487 83.469 372.956 186.433 372.956Z" fill="#F2F2F2"/>
<path d="M137.614 168.439C137.614 168.439 151.107 168.024 155.173 165.128C159.24 162.233 175.929 158.775 176.938 163.419C177.946 168.063 197.215 186.516 181.981 186.639C166.748 186.762 146.586 184.266 142.527 181.794C138.469 179.321 137.614 168.439 137.614 168.439Z" fill="#A8A8A8"/>
<path opacity="0.2" d="M182.253 185.022C167.02 185.145 146.858 182.649 142.799 180.177C139.708 178.294 138.477 171.538 138.065 168.421C137.779 168.434 137.614 168.439 137.614 168.439C137.614 168.439 138.469 179.321 142.527 181.793C146.586 184.265 166.748 186.761 181.982 186.638C186.379 186.603 187.898 185.038 187.814 182.721C187.203 184.121 185.526 184.995 182.253 185.022Z" fill="black"/>
<path d="M236.324 393.91C326.719 393.91 400 383.941 400 371.643C400 359.346 326.719 349.376 236.324 349.376C145.928 349.376 72.6475 359.346 72.6475 371.643C72.6475 383.941 145.928 393.91 236.324 393.91Z" fill="#3F3D56"/>
<path opacity="0.1" d="M236.324 390.338C312.218 390.338 373.742 381.968 373.742 371.643C373.742 361.319 312.218 352.949 236.324 352.949C160.43 352.949 98.9062 361.319 98.9062 371.643C98.9062 381.968 160.43 390.338 236.324 390.338Z" fill="black"/>
<path d="M339.606 139.258H157.549V351.074H339.606V139.258Z" fill="#2F2E41"/>
<path d="M357.987 118.252H139.169V193.525H357.987V118.252Z" fill="#3F3D56"/>
<path d="M357.987 207.53H139.169V282.803H357.987V207.53Z" fill="#3F3D56"/>
<path d="M357.987 296.808H139.169V372.081H357.987V296.808Z" fill="#3F3D56"/>
<path opacity="0.4" d="M314.223 131.381H300.219V145.385H314.223V131.381Z" fill="#EB5757"/>
<path opacity="0.8" d="M334.354 131.381H320.35V145.385H334.354V131.381Z" fill="#EB5757"/>
<path d="M354.486 131.381H340.481V145.385H354.486V131.381Z" fill="#EB5757"/>
<path opacity="0.4" d="M314.223 219.784H300.219V233.788H314.223V219.784Z" fill="#EB5757"/>
<path opacity="0.8" d="M334.354 219.784H320.35V233.788H334.354V219.784Z" fill="#EB5757"/>
<path d="M354.486 219.784H340.481V233.788H354.486V219.784Z" fill="#EB5757"/>
<path opacity="0.4" d="M314.223 308.186H300.219V322.19H314.223V308.186Z" fill="#EB5757"/>
<path opacity="0.8" d="M334.354 308.186H320.35V322.19H334.354V308.186Z" fill="#EB5757"/>
<path d="M354.486 308.186H340.481V322.19H354.486V308.186Z" fill="#EB5757"/>
<path d="M71.7792 361.755L71.7793 361.755L71.7843 361.746L141.868 234.163C141.869 234.161 141.87 234.159 141.871 234.158C145.303 228.211 151.447 224.663 158.313 224.661C165.179 224.658 171.325 228.202 174.762 234.147C174.763 234.148 174.764 234.15 174.765 234.151L244.945 361.702L244.951 361.711C246.665 364.679 247.521 367.935 247.522 371.193C247.521 374.45 246.666 377.711 244.948 380.688C241.516 386.637 235.372 390.188 228.504 390.19L88.2369 390.238C81.3689 390.241 75.2218 386.695 71.7857 380.748C70.0663 377.772 69.2082 374.511 69.207 371.252C69.2059 367.994 70.0622 364.732 71.7792 361.755ZM88.2366 389.479L88.2475 389.479L88.2365 388.979C88.2475 389.479 88.2481 389.479 88.2493 389.479L88.2545 389.479L88.2753 389.478L88.3581 389.477L88.6851 389.469C88.9737 389.463 89.4019 389.453 89.9606 389.44C91.0779 389.414 92.717 389.375 94.8042 389.324C98.9786 389.221 104.946 389.067 112.116 388.866C126.456 388.464 145.61 387.869 164.866 387.101C184.119 386.333 203.479 385.391 218.227 384.294C225.6 383.745 231.829 383.157 236.32 382.532C238.563 382.219 240.386 381.895 241.705 381.559C242.364 381.391 242.913 381.216 243.332 381.03C243.721 380.858 244.104 380.633 244.291 380.309C245.936 377.457 246.76 374.325 246.758 371.191C246.757 368.059 245.932 364.929 244.286 362.08C244.285 362.078 244.285 362.077 244.284 362.075L174.103 234.524L174.103 234.524L174.098 234.515C170.81 228.825 164.903 225.418 158.313 225.42C158.104 225.42 157.906 225.49 157.734 225.576C157.558 225.665 157.375 225.789 157.188 225.936C156.815 226.23 156.383 226.652 155.901 227.183C154.934 228.246 153.719 229.793 152.295 231.746C149.446 235.655 145.732 241.236 141.463 247.931C132.923 261.326 122.139 279.212 111.558 297.189C100.977 315.168 90.5952 333.242 82.8588 347.012C78.9907 353.897 75.7827 359.708 73.5412 363.895C72.4207 365.987 71.5398 367.677 70.9381 368.894C70.6377 369.502 70.4042 369.997 70.2447 370.367C70.1653 370.552 70.1012 370.713 70.0562 370.845C70.0187 370.954 69.9702 371.109 69.9702 371.25C69.9702 371.557 70.0722 371.837 70.2815 372.057C70.4797 372.266 70.741 372.388 71.0055 372.461C71.525 372.604 72.213 372.6 72.962 372.527C74.4482 372.382 76.4221 371.939 78.4065 371.493L78.5189 371.468C80.5626 371.009 82.6168 370.552 84.2587 370.378C85.0813 370.291 85.7662 370.279 86.2783 370.361C86.8061 370.445 87.0325 370.608 87.1185 370.757L87.5514 370.507L87.1185 370.757C87.8327 371.993 87.8977 373.698 87.6151 375.664C87.3781 377.313 86.911 379.063 86.4582 380.76C86.3742 381.075 86.2906 381.388 86.209 381.698C85.6993 383.639 85.2545 385.517 85.3778 386.918C85.4406 387.633 85.6557 388.294 86.1499 388.773C86.6487 389.256 87.3539 389.479 88.2366 389.479Z" fill="white" stroke="#333333"/>
<path d="M185.002 390.226C220.466 390.226 249.216 361.476 249.216 326.011C249.216 290.547 220.466 261.797 185.002 261.797C149.537 261.797 120.787 290.547 120.787 326.011C120.787 361.476 149.537 390.226 185.002 390.226Z" fill="#EB5757"/>
<path d="M185.013 365.376C188.269 365.376 190.909 362.736 190.909 359.48C190.909 356.224 188.269 353.584 185.013 353.584C181.757 353.584 179.117 356.224 179.117 359.48C179.117 362.736 181.757 365.376 185.013 365.376Z" fill="white"/>
<path d="M184.988 286.647C184.446 290.246 185.416 290.999 185.422 306.514C185.427 322.029 188.646 342.831 185.007 342.833C181.368 342.834 180.037 299.903 167.399 296.103C152.541 291.636 186.741 274.997 184.988 286.647Z" fill="white"/>
</svg>
