<svg width="400" height="356" viewBox="0 0 400 356" fill="none" xmlns="http://www.w3.org/2000/svg">
<path d="M100.899 320.285C100.457 320.305 100.02 320.189 99.647 319.953C99.2736 319.717 98.982 319.371 98.8116 318.963C98.6411 318.556 98.6001 318.106 98.694 317.674C98.788 317.242 99.0124 316.85 99.3369 316.55C99.3912 316.334 99.4302 316.179 99.4845 315.963C99.0621 314.89 98.3289 313.967 97.3789 313.314C96.4288 312.66 95.3052 312.305 94.1521 312.294C92.999 312.283 91.8689 312.617 90.9067 313.253C89.9445 313.888 89.194 314.797 88.7514 315.862C86.1975 321.839 82.8922 328.028 84.536 334.612C73.6782 311.6 77.3707 282.976 93.417 263.296C97.8524 260.853 101.447 256.512 102.383 251.472C100.188 252.215 97.4513 250.43 99.1018 248.118C99.8172 247.234 100.54 246.357 101.255 245.473C92.9164 236.593 82.9812 250.55 92.1594 262.536C89.157 266.3 86.5563 270.368 84.3997 274.673C84.8977 270.102 84.3033 265.477 82.6654 261.18C81.0054 257.176 77.8939 253.803 75.1539 250.341C71.8224 246.123 64.9658 248.069 64.5175 253.422C67.592 254.432 67.9915 258.874 64.4746 259.481C65.3957 269.44 71.9017 278.592 80.8623 282.959C77.5532 292.244 76.2611 302.127 77.072 311.95C75.4903 300.47 63.1668 297.684 54.5533 293.121C54.005 292.769 53.3663 292.585 52.7151 292.59C52.0639 292.595 51.4282 292.79 50.8857 293.15C50.3432 293.511 49.9172 294.021 49.6599 294.619C49.4025 295.217 49.3248 295.878 49.4362 296.519C50.6251 297.003 51.763 297.603 52.8331 298.311C53.3346 298.649 53.7195 299.133 53.9351 299.697C54.1507 300.262 54.1864 300.879 54.0374 301.464C53.8884 302.05 53.5619 302.575 53.1027 302.968C52.6434 303.361 52.074 303.602 51.4724 303.658C55.8142 314.404 67.0394 321.62 78.5685 321.579C79.6764 326.394 81.2817 331.08 83.3585 335.563H100.47C100.531 335.373 100.586 335.176 100.642 334.986C99.0577 335.086 97.4676 334.991 95.9068 334.704C100.097 329.743 103.338 327.211 100.899 320.285L100.899 320.285Z" fill="#F2F2F2"/>
<path d="M253.45 320.285C253.891 320.305 254.328 320.189 254.701 319.953C255.075 319.717 255.366 319.371 255.537 318.963C255.707 318.556 255.748 318.106 255.654 317.674C255.56 317.242 255.336 316.85 255.011 316.55C254.957 316.334 254.918 316.179 254.864 315.963C255.286 314.89 256.019 313.967 256.969 313.314C257.919 312.66 259.043 312.305 260.196 312.294C261.349 312.283 262.479 312.617 263.442 313.253C264.404 313.888 265.154 314.797 265.597 315.862C268.151 321.839 271.456 328.028 269.812 334.612C280.67 311.6 276.978 282.976 260.931 263.296C256.496 260.853 252.901 256.512 251.965 251.472C254.16 252.215 256.897 250.43 255.246 248.118C254.531 247.234 253.809 246.357 253.093 245.473C261.432 236.593 271.367 250.55 262.189 262.536C265.191 266.3 267.792 270.368 269.949 274.673C269.45 270.102 270.045 265.477 271.683 261.18C273.343 257.176 276.454 253.803 279.194 250.341C282.526 246.123 289.382 248.069 289.831 253.422C286.756 254.432 286.357 258.874 289.874 259.481C288.952 269.44 282.447 278.592 273.486 282.959C276.795 292.244 278.087 302.127 277.276 311.95C278.858 300.47 291.181 297.684 299.795 293.121C300.343 292.769 300.982 292.585 301.633 292.59C302.284 292.595 302.92 292.79 303.463 293.15C304.005 293.511 304.431 294.021 304.688 294.619C304.946 295.217 305.023 295.878 304.912 296.519C303.723 297.003 302.585 297.603 301.515 298.311C301.014 298.649 300.629 299.133 300.413 299.697C300.198 300.262 300.162 300.879 300.311 301.464C300.46 302.05 300.786 302.575 301.246 302.968C301.705 303.361 302.274 303.602 302.876 303.658C298.534 314.404 287.309 321.62 275.78 321.579C274.672 326.394 273.066 331.08 270.99 335.563H253.878C253.817 335.373 253.762 335.176 253.707 334.986C255.29 335.086 256.881 334.991 258.441 334.704C254.251 329.743 251.011 327.211 253.45 320.285Z" fill="#F2F2F2"/>
<path d="M259.794 322.826L252.425 324.502L242.451 296.876L253.328 294.401L259.794 322.826Z" fill="#FFB6B6"/>
<path d="M261.803 330.454L239.142 335.61L239.077 335.323C238.545 332.984 238.964 330.529 240.241 328.499C241.519 326.468 243.551 325.028 245.89 324.496L249.315 320.414L257.753 321.797L259.731 321.347L261.803 330.454Z" fill="#2F2E41"/>
<path d="M378.671 188.167L382.721 194.547L360.042 213.21L354.062 203.794L378.671 188.167Z" fill="#FFB6B6"/>
<path d="M385.181 183.715L397.64 203.334L397.392 203.491C395.367 204.777 392.914 205.206 390.572 204.684C388.231 204.161 386.193 202.73 384.906 200.705L379.912 198.848L378.384 190.435L377.297 188.722L385.181 183.715Z" fill="#2F2E41"/>
<path d="M143.769 119.959L141.949 109.41L169.62 96.9148L175.596 86.3348C175.403 85.4064 175.47 84.4427 175.79 83.5502C176.111 82.6577 176.672 81.8711 177.411 81.2773C178.15 80.6835 179.039 80.3056 179.98 80.1853C180.92 80.0651 181.876 80.2072 182.741 80.5959C183.606 80.9846 184.346 81.6048 184.881 82.388C185.416 83.1712 185.723 84.087 185.77 85.0341C185.817 85.9812 185.601 86.9228 185.146 87.7549C184.691 88.587 184.016 89.2772 183.193 89.7493L173.363 104.947L143.769 119.959Z" fill="#A0616A"/>
<path d="M135.357 111.336L147.818 104.97L151.117 117.356L142.462 123.772L135.357 111.336Z" fill="#1760A5"/>
<path d="M107.396 321.866L114.93 321.866L118.515 292.804L107.395 292.805L107.396 321.866Z" fill="#A0616A"/>
<path d="M117.438 322.544V317.437L115.457 317.558L107.395 318.035L105.528 318.15L104.102 335.257L104.025 336.174H109.375L109.547 335.263L110.324 331.123L112.33 335.263L112.77 336.174H126.953C127.797 336.168 128.605 335.83 129.201 335.233C129.798 334.635 130.134 333.827 130.138 332.983C130.736 330.187 118.941 324.143 117.438 322.544Z" fill="#2F2E41"/>
<path d="M17.9595 206.533L16.2031 213.86L43.628 224.122L46.2199 213.308L17.9595 206.533Z" fill="#A0616A"/>
<path d="M15.5559 216.14L20.523 217.331L20.8672 215.376L22.2826 207.424L22.6062 205.583L6.30359 200.207L5.42955 199.919L4.18218 205.121L5.02773 205.501L8.87223 207.222L4.3788 208.207L3.39068 208.422L0.0836737 222.215C-0.107921 223.037 0.0324799 223.901 0.474416 224.62C0.916352 225.339 1.62412 225.855 2.44403 226.056C5.02332 227.29 13.651 217.229 15.5559 216.14Z" fill="#2F2E41"/>
<path d="M119.046 133.782L109.348 129.249L90.0083 152.654L78.2282 155.633C77.3834 155.202 76.4359 155.013 75.4906 155.088C74.5452 155.162 73.6387 155.495 72.8712 156.052C72.1037 156.609 71.505 157.367 71.1414 158.243C70.7777 159.119 70.6632 160.078 70.8105 161.015C70.9577 161.952 71.3611 162.829 71.9759 163.551C72.5907 164.273 73.3932 164.811 74.2945 165.106C75.1959 165.4 76.1611 165.44 77.0836 165.22C78.006 165.001 78.8499 164.53 79.5218 163.861L96.7716 158.379L119.046 133.782Z" fill="#A0616A"/>
<path d="M256.536 47.1419C254.481 47.1419 252.471 46.5323 250.762 45.3902C249.053 44.2481 247.72 42.6249 246.934 40.7257C246.147 38.8265 245.941 36.7367 246.342 34.7205C246.743 32.7043 247.733 30.8523 249.187 29.3987C250.64 27.9451 252.492 26.9552 254.509 26.5542C256.525 26.1532 258.615 26.359 260.514 27.1457C262.413 27.9324 264.036 29.2645 265.178 30.9738C266.32 32.683 266.93 34.6925 266.93 36.7482C266.927 39.5038 265.831 42.1457 263.882 44.0942C261.934 46.0428 259.292 47.1388 256.536 47.1419ZM256.536 27.5473C254.716 27.5473 252.938 28.0869 251.425 29.0979C249.911 30.1089 248.732 31.5459 248.036 33.2271C247.339 34.9084 247.157 36.7584 247.512 38.5432C247.867 40.328 248.743 41.9674 250.03 43.2542C251.317 44.541 252.956 45.4173 254.741 45.7723C256.526 46.1273 258.376 45.9451 260.057 45.2487C261.739 44.5523 263.176 43.373 264.187 41.8599C265.198 40.3468 265.737 38.5679 265.737 36.7482C265.734 34.3088 264.764 31.9701 263.039 30.2452C261.314 28.5203 258.976 27.5501 256.536 27.5473Z" fill="#E6E6E6"/>
<path d="M255.803 40.664C255.782 40.664 255.761 40.6634 255.74 40.6623C255.556 40.6534 255.375 40.6047 255.211 40.5195C255.047 40.4344 254.904 40.3147 254.79 40.1689L253.153 38.0639C253.05 37.9311 252.973 37.7791 252.929 37.6168C252.884 37.4545 252.872 37.285 252.893 37.1179C252.914 36.9508 252.967 36.7895 253.05 36.6432C253.134 36.4968 253.245 36.3683 253.378 36.265L253.437 36.2191C253.569 36.1157 253.721 36.0394 253.884 35.9947C254.046 35.95 254.216 35.9378 254.383 35.9586C254.55 35.9795 254.711 36.0331 254.858 36.1164C255.004 36.1997 255.133 36.311 255.236 36.444C255.319 36.5501 255.423 36.6372 255.543 36.6992C255.662 36.7612 255.794 36.7967 255.928 36.8033C256.062 36.8098 256.197 36.7873 256.322 36.7371C256.447 36.687 256.559 36.6105 256.652 36.5129L259.976 33.0033C260.21 32.7568 260.532 32.6132 260.872 32.604C261.212 32.5948 261.541 32.7207 261.788 32.9541L261.843 33.006C261.965 33.1218 262.063 33.2605 262.132 33.4142C262.201 33.5679 262.238 33.7337 262.243 33.902C262.247 34.0703 262.219 34.2378 262.159 34.395C262.098 34.5522 262.008 34.696 261.892 34.8182L256.733 40.2636C256.613 40.3901 256.469 40.4909 256.309 40.5597C256.149 40.6285 255.977 40.664 255.803 40.664Z" fill="#E6E6E6"/>
<path d="M204.651 172.98C202.596 172.98 200.586 172.37 198.877 171.228C197.168 170.086 195.836 168.463 195.049 166.564C194.262 164.664 194.056 162.575 194.458 160.558C194.859 158.542 195.848 156.69 197.302 155.237C198.756 153.783 200.608 152.793 202.624 152.392C204.64 151.991 206.73 152.197 208.629 152.984C210.528 153.77 212.151 155.102 213.294 156.812C214.436 158.521 215.045 160.53 215.045 162.586C215.042 165.342 213.946 167.984 211.998 169.932C210.049 171.881 207.407 172.977 204.651 172.98ZM204.651 153.385C202.832 153.385 201.053 153.925 199.54 154.936C198.027 155.947 196.847 157.384 196.151 159.065C195.455 160.746 195.272 162.596 195.627 164.381C195.982 166.166 196.859 167.805 198.145 169.092C199.432 170.379 201.072 171.255 202.856 171.61C204.641 171.965 206.491 171.783 208.173 171.087C209.854 170.39 211.291 169.211 212.302 167.698C213.313 166.185 213.852 164.406 213.852 162.586C213.85 160.147 212.879 157.808 211.154 156.083C209.43 154.358 207.091 153.388 204.651 153.385Z" fill="#E6E6E6"/>
<path d="M203.918 166.502C203.897 166.502 203.876 166.501 203.855 166.5C203.671 166.491 203.49 166.443 203.326 166.357C203.162 166.272 203.019 166.153 202.906 166.007L201.268 163.902C201.165 163.769 201.089 163.617 201.044 163.455C200.999 163.292 200.987 163.123 201.008 162.956C201.029 162.789 201.082 162.627 201.166 162.481C201.249 162.335 201.36 162.206 201.493 162.103L201.552 162.057C201.685 161.954 201.837 161.877 201.999 161.833C202.161 161.788 202.331 161.776 202.498 161.797C202.665 161.817 202.827 161.871 202.973 161.954C203.119 162.038 203.248 162.149 203.351 162.282C203.434 162.388 203.539 162.475 203.658 162.537C203.777 162.599 203.909 162.635 204.043 162.641C204.178 162.648 204.312 162.625 204.437 162.575C204.562 162.525 204.674 162.448 204.767 162.351L208.091 158.841C208.325 158.595 208.648 158.451 208.987 158.442C209.327 158.433 209.657 158.559 209.904 158.792L209.958 158.844C210.08 158.96 210.179 159.098 210.247 159.252C210.316 159.406 210.354 159.572 210.358 159.74C210.363 159.908 210.334 160.076 210.274 160.233C210.214 160.39 210.123 160.534 210.007 160.656L204.848 166.102C204.729 166.228 204.584 166.329 204.424 166.398C204.264 166.466 204.092 166.502 203.918 166.502Z" fill="#E6E6E6"/>
<path d="M90.7413 32.8284C88.6857 32.8284 86.6762 32.2188 84.9669 31.0767C83.2577 29.9347 81.9255 28.3114 81.1388 26.4122C80.3522 24.513 80.1463 22.4232 80.5474 20.407C80.9484 18.3908 81.9383 16.5388 83.3919 15.0853C84.8455 13.6317 86.6975 12.6418 88.7136 12.2407C90.7298 11.8397 92.8196 12.0455 94.7188 12.8322C96.618 13.6189 98.2413 14.951 99.3834 16.6603C100.525 18.3695 101.135 20.379 101.135 22.4347C101.132 25.1903 100.036 27.8322 98.0874 29.7808C96.1389 31.7293 93.497 32.8253 90.7413 32.8284ZM90.7413 13.2338C88.9216 13.2338 87.1427 13.7734 85.6296 14.7844C84.1165 15.7954 82.9372 17.2324 82.2408 18.9137C81.5444 20.5949 81.3622 22.4449 81.7172 24.2297C82.0722 26.0145 82.9486 27.654 84.2353 28.9407C85.5221 30.2275 87.1615 31.1038 88.9463 31.4588C90.7311 31.8138 92.5811 31.6316 94.2624 30.9352C95.9436 30.2388 97.3806 29.0595 98.3916 27.5464C99.4026 26.0334 99.9423 24.2545 99.9423 22.4347C99.9395 19.9953 98.9692 17.6566 97.2443 15.9317C95.5194 14.2068 93.1807 13.2366 90.7413 13.2338Z" fill="#E6E6E6"/>
<path d="M90.0078 26.3505C89.9869 26.3505 89.966 26.3499 89.9451 26.3488C89.7606 26.3399 89.5802 26.2912 89.4163 26.206C89.2523 26.1209 89.1088 26.0012 88.9954 25.8554L87.3581 23.7504C87.2547 23.6176 87.1785 23.4656 87.1338 23.3033C87.0892 23.141 87.0769 22.9715 87.0978 22.8044C87.1186 22.6374 87.1722 22.476 87.2554 22.3297C87.3386 22.1833 87.4499 22.0548 87.5828 21.9515L87.6417 21.9056C87.7746 21.8022 87.9265 21.7259 88.0889 21.6812C88.2512 21.6365 88.4208 21.6243 88.5879 21.6452C88.755 21.666 88.9164 21.7196 89.0628 21.8029C89.2091 21.8862 89.3377 21.9975 89.441 22.1305C89.5237 22.2367 89.6283 22.3237 89.7478 22.3857C89.8672 22.4477 89.9987 22.4832 90.1331 22.4898C90.2675 22.4963 90.4018 22.4738 90.5267 22.4237C90.6516 22.3735 90.7642 22.2971 90.8569 22.1994L94.1812 18.6898C94.4152 18.4433 94.7374 18.2997 95.0772 18.2905C95.417 18.2813 95.7465 18.4072 95.9936 18.6406L96.0481 18.6925C96.1703 18.8083 96.2685 18.947 96.3372 19.1007C96.4058 19.2545 96.4434 19.4202 96.448 19.5885C96.4525 19.7568 96.4239 19.9243 96.3636 20.0815C96.3034 20.2388 96.2128 20.3826 96.097 20.5047L90.938 25.9502C90.8183 26.0766 90.6741 26.1774 90.5142 26.2462C90.3542 26.3151 90.1819 26.3506 90.0078 26.3505Z" fill="#E6E6E6"/>
<path d="M173.953 211.624C149.852 211.624 122.153 184.879 97.6462 197.586C23.4467 236.061 33.6607 171.679 12.3438 147.735L13.0436 146.331C36.5644 167.421 65.9308 184.581 97.9684 195.954C126.92 206.232 156.089 210.994 182.311 209.738L182.357 211.425C179.588 211.558 176.786 211.625 173.953 211.624Z" fill="#F2F2F2"/>
<path d="M140.891 30.7943C143.674 30.7943 145.929 27.7698 145.929 24.0388C145.929 20.3078 143.674 17.2832 140.891 17.2832C138.109 17.2832 135.854 20.3078 135.854 24.0388C135.854 27.7698 138.109 30.7943 140.891 30.7943Z" fill="#E6E6E6"/>
<path d="M199.079 136.182C196.776 137.716 194.419 134.064 196.766 132.597C199.07 131.063 201.427 134.715 199.079 136.182Z" fill="#E6E6E6"/>
<path d="M185.822 13.2167C189.445 13.2167 192.382 10.2796 192.382 6.65646C192.382 3.03333 189.445 0.0961914 185.822 0.0961914C182.199 0.0961914 179.262 3.03333 179.262 6.65646C179.262 10.2796 182.199 13.2167 185.822 13.2167Z" fill="#FF6584"/>
<path d="M171.088 175.43C174.613 175.43 177.471 172.573 177.471 169.048C177.471 165.522 174.613 162.665 171.088 162.665C167.563 162.665 164.705 165.522 164.705 169.048C164.705 172.573 167.563 175.43 171.088 175.43Z" fill="#F2F2F2"/>
<path d="M109.268 171.482C109.268 171.482 93.3561 181.843 97.5635 188.728C97.7087 188.966 78.5568 214.26 78.5568 214.26L42.4027 211.965L41.1289 224.066L73.3159 233.388C73.3159 233.388 81.1901 239.173 87.2731 232.799C93.3561 226.425 113.618 206.907 113.618 206.907L114.595 246.314L104.424 300.921L119.611 299.958L134.393 245.174L139.849 183.117L109.268 171.482Z" fill="#2F2E41"/>
<path d="M120.604 109.298L113.913 114.369L106.286 130.646L113.62 140.606C113.62 140.606 119.789 151.298 109.914 161.651C100.04 172.005 92.4576 183.063 100.361 182.669C108.264 182.274 140.274 198.555 140.485 185.216C140.696 171.878 141.122 161.651 141.122 161.651L149.514 140.366C149.514 140.366 154.514 127.668 151.004 123.867C147.493 120.066 142.793 115.209 142.793 115.209L134.246 106.661H126.528L120.604 109.298Z" fill="#1760A5"/>
<path d="M133.095 78.0221C148.106 86.5642 135.783 109.102 120.491 101.077C105.481 92.535 117.804 69.9968 133.095 78.0221Z" fill="#A0616A"/>
<path d="M141.121 82.7587C140.069 84.1267 137.871 83.4852 133.568 84.4614C133.577 83.0027 133.409 81.5483 133.066 80.1304C132.746 81.886 132.044 83.5498 131.01 85.0045C127.274 85.4189 131.854 96.7711 129.941 105.118C127.476 87.5092 122.291 92.1224 124.91 95.615C126.587 97.8509 125.469 104.559 120.439 101.205C112.138 105.15 100.316 85.5535 113.419 76.3632C113.184 71.3956 118.712 70.6109 122.115 72.1382C130.376 65.9848 139.813 73.8694 141.121 82.7587Z" fill="#2F2E41"/>
<path d="M102.605 69.9098C99.2633 90.4581 81.35 66.1308 72.9273 86.3523C70.2791 93.6754 74.8227 98.914 77.6968 104.992C78.3527 109.988 71.8541 112.522 71.1734 117.121C70.984 127.662 87.9915 127.017 92.7461 120.366C97.6314 113.404 91.7976 104.063 94.7341 96.5893C98.8613 86.2137 115.646 86.1366 117.108 74.0655C114.276 70.0329 106.661 65.4142 102.605 69.9098Z" fill="#2F2E41"/>
<path d="M116.144 71.918C116.035 71.964 115.925 72.01 115.828 72.0618H115.822C115.73 72.1079 115.638 72.1539 115.546 72.2057C115.534 72.2114 115.528 72.2172 115.517 72.223C115.396 72.1079 115.275 71.9928 115.149 71.8777C115.116 72.0651 115.124 72.2574 115.172 72.4416L115.189 72.5107C115.304 72.6315 115.425 72.7466 115.551 72.8675C115.666 72.7811 115.776 72.6891 115.891 72.6027C115.96 72.5452 116.029 72.4876 116.104 72.4301C116.115 72.2805 116.133 72.1079 116.15 71.9179L116.144 71.918ZM119.608 65.519C117.042 64.9321 116.213 68.2869 115.966 69.9039C115.033 64.0344 111.155 65.8816 112.496 69.8866C112.923 71.0724 113.596 72.1547 114.469 73.0631C114.59 73.2012 114.723 73.3393 114.861 73.4774C114.705 74.283 115.488 74.0759 116.547 73.3336C117.329 72.7775 118.052 72.1432 118.705 71.4403C120.817 69.2249 122.462 66.2613 119.608 65.519ZM119.689 68.8221C118.897 69.8431 118.009 70.7854 117.036 71.636C116.731 71.9122 116.42 72.1769 116.104 72.4301C116.098 72.4819 116.098 72.5279 116.092 72.5682C116.07 72.6241 116.043 72.678 116.012 72.7293C115.689 73.3105 115.327 72.994 115.189 72.5107C115.177 72.4934 115.16 72.4761 115.149 72.4589C114.689 71.9838 114.289 71.4543 113.957 70.8822C111.581 66.762 115.407 63.9596 115.218 71.6532C115.183 71.7238 115.159 71.7996 115.149 71.8777C115.116 72.0651 115.124 72.2574 115.172 72.4416L115.189 72.5107C115.304 72.6315 115.425 72.7466 115.551 72.8675C115.666 72.7811 115.776 72.6891 115.891 72.6027C115.96 72.5452 116.029 72.4876 116.104 72.4301C116.115 72.2805 116.133 72.1079 116.15 71.9179V71.9122C116.299 70.37 116.708 67.5964 117.462 66.8425C119.119 65.5708 121.265 66.9461 119.689 68.8221ZM116.144 71.918C116.035 71.964 115.925 72.01 115.828 72.0618H115.822C115.73 72.1079 115.638 72.1539 115.546 72.2057C115.534 72.2114 115.528 72.2172 115.517 72.223C115.396 72.1079 115.275 71.9928 115.149 71.8777C115.116 72.0651 115.124 72.2574 115.172 72.4416L115.189 72.5107C115.304 72.6315 115.425 72.7466 115.551 72.8675C115.666 72.7811 115.776 72.6891 115.891 72.6027C115.96 72.5452 116.029 72.4876 116.104 72.4301C116.115 72.2805 116.133 72.1079 116.15 71.9179L116.144 71.918Z" fill="#2F2E41"/>
<path d="M254.89 185.207L249.345 199.666L223.338 250.967L246.191 310.646L257.985 307.533L248.264 250.967L276.153 217.08L309.274 239.544C309.274 239.544 323.963 251.012 329.551 240.141C335.139 229.27 371.298 206.147 371.298 206.147L362.352 196.605L320.713 216.091L291.974 175.639L254.89 185.207Z" fill="#2F2E41"/>
<path d="M282.864 117.008L273.738 107.203L258.083 105.049L238.9 118.478L239.094 133.342L248.576 168.367C248.576 168.367 244.964 193.531 255.053 193.279C265.141 193.026 270.64 187.996 274.749 189.02C278.858 190.044 296.325 194.402 297.432 189.837C298.539 185.273 304.423 188.541 304.165 184.223C303.907 179.906 288.236 148.782 288.236 148.782L292.132 117.656L282.864 117.008Z" fill="#1760A5"/>
<path d="M340.648 71.8728C340.73 72.686 340.632 73.5072 340.362 74.2785C340.092 75.0498 339.656 75.7526 339.085 76.3373C338.514 76.9219 337.822 77.3743 337.057 77.6625C336.292 77.9507 335.474 78.0677 334.659 78.0053L313.672 117.919L308.037 109.27L329.489 71.5994C329.684 70.2374 330.373 68.9945 331.424 68.1062C332.474 67.2179 333.814 66.7458 335.19 66.7795C336.565 66.8132 337.881 67.3503 338.887 68.2891C339.893 69.2278 340.519 70.5029 340.648 71.8728Z" fill="#FFB6B6"/>
<path d="M274.577 124.43C274.577 124.43 273.745 131.529 281.738 133.287C289.731 135.045 311.875 122.392 315.505 120.459C316.642 119.854 318.184 116.888 319.767 113.098C320.478 111.397 321.196 109.53 321.89 107.636C322.291 106.54 324.213 106.241 324.592 105.154C324.968 104.074 323.8 102.205 324.141 101.186C325.758 96.3506 326.904 92.5145 326.904 92.5145L321.606 82.5635C314.197 86.4804 310.397 95.1082 307.602 105.048L274.577 124.43Z" fill="#1760A5"/>
<path d="M181.231 81.0392C181.356 81.8469 181.656 82.6175 182.11 83.2968C182.565 83.976 183.163 84.5473 183.862 84.9704C184.561 85.3936 185.344 85.6583 186.157 85.746C186.969 85.8336 187.791 85.7421 188.565 85.4777L218.873 118.87L222.163 109.085L191.967 77.9818C191.437 76.7121 190.459 75.681 189.22 75.0839C187.98 74.4868 186.564 74.3652 185.241 74.7421C183.918 75.1189 182.779 75.9681 182.04 77.1287C181.301 78.2893 181.013 79.6807 181.231 81.0392Z" fill="#FFB6B6"/>
<path d="M258.351 115.389C258.351 115.389 260.934 122.054 253.635 125.756C246.337 129.458 221.731 122.75 217.732 121.787C216.48 121.486 214.245 119 211.764 115.727C210.65 114.258 209.487 112.63 208.342 110.97C207.679 110.009 205.743 110.201 205.105 109.243C204.47 108.291 205.133 106.189 204.548 105.288C201.772 101.011 199.703 97.5841 199.703 97.5841L202.342 86.624C210.495 88.5621 216.334 95.9644 221.527 104.889L258.351 115.389Z" fill="#1760A5"/>
<path d="M266.222 102.555C274.448 102.555 281.117 95.8858 281.117 87.6593C281.117 79.4328 274.448 72.7639 266.222 72.7639C257.995 72.7639 251.326 79.4328 251.326 87.6593C251.326 95.8858 257.995 102.555 266.222 102.555Z" fill="#FFB6B6"/>
<path d="M283.225 79.1305C281.658 76.7064 278.718 75.0909 275.867 75.5449C275.602 73.7258 274.843 72.0144 273.672 70.5969C272.502 69.1795 270.965 68.1104 269.228 67.506C267.492 66.9016 265.624 66.7852 263.826 67.1693C262.028 67.5534 260.37 68.4234 259.033 69.6845C258.593 69.3748 258.08 69.1839 257.545 69.1304C257.01 69.0768 256.47 69.1624 255.977 69.3787C254.996 69.8248 254.143 70.5099 253.495 71.3712C251.859 73.4109 250.808 75.8559 250.451 78.4461C250.095 81.0362 250.448 83.6744 251.472 86.08C251.124 84.8136 252.393 83.6222 253.675 83.338C254.957 83.0538 256.302 83.3226 257.603 83.1376C259.269 82.9004 260.768 81.9336 262.437 81.716C263.852 81.6239 265.272 81.8064 266.619 82.2534C267.965 82.7002 269.382 82.8907 270.799 82.8147C272.204 82.6479 274.013 87.9722 273.989 91.7223C273.984 92.4329 274.131 93.3454 274.825 93.4962C275.681 93.6819 276.176 92.5014 276.99 92.1798C277.366 92.0722 277.768 92.1145 278.112 92.2978C278.457 92.481 278.717 92.7909 278.838 93.1621C278.94 93.5395 278.951 93.9359 278.87 94.3183C278.788 94.7008 278.616 95.0582 278.369 95.3609C277.868 95.961 277.274 96.4763 276.61 96.887L276.945 97.1658C277.263 97.5021 277.689 97.7172 278.148 97.7743C278.607 97.8314 279.073 97.7269 279.463 97.4787C280.232 96.9581 280.855 96.2493 281.272 95.4198C282.843 92.99 283.966 90.2985 284.588 87.4726C285.113 84.6345 284.792 81.5545 283.225 79.1305Z" fill="#2F2E41"/>
<path d="M393.421 137.879C374.209 152.43 335.98 147.833 324.117 172.759C288.197 248.229 257.468 190.739 226.018 184.522L225.729 182.981C257.212 185.592 290.982 181.54 323.388 171.263C352.673 161.977 378.801 148.162 398.945 131.328L400 132.646C397.873 134.424 395.68 136.168 393.421 137.879Z" fill="#F2F2F2"/>
<path d="M312.19 354.887C311.732 356.242 50.4703 356.242 49.9766 354.89C50.4336 353.531 311.695 353.531 312.19 354.887Z" fill="#CCCCCC"/>
</svg>
