<svg width="384" height="384" viewBox="0 0 384 384" fill="none" xmlns="http://www.w3.org/2000/svg">
<path d="M383.998 192C383.985 227.632 374.066 262.559 355.35 292.879C336.633 323.199 309.856 347.719 278.008 363.7C276.378 364.52 274.732 365.317 273.068 366.09C230.082 386.039 181.253 389.453 135.908 375.68C131.458 374.32 127.078 372.807 122.768 371.14C83.354 355.893 50.0688 328.072 28.0711 291.988C6.07345 255.904 -3.40849 213.572 1.0947 171.552C5.5979 129.532 23.8348 90.1709 52.9792 59.5677C82.1236 28.9645 120.548 8.82847 162.298 2.28001C172.125 0.759455 182.055 -0.0027929 191.998 7.68904e-06C298.038 7.68904e-06 383.998 85.9599 383.998 192Z" fill="#F2F2F2"/>
<path d="M192.72 318.505C188.614 318.492 184.526 317.963 180.551 316.931L179.768 316.714L179.041 316.35C152.769 303.178 130.605 285.779 113.164 264.637C98.7263 247.033 87.4701 227.046 79.9015 205.573C70.8506 179.866 66.4963 152.74 67.0463 125.491C67.0574 124.92 67.0668 124.478 67.0668 124.174C67.0668 110.928 74.4192 99.3056 85.7979 94.5644C94.5066 90.9358 173.577 58.4583 179.291 56.1117C190.05 50.7206 201.528 55.2203 203.365 56.0072C207.485 57.6917 280.581 87.5889 296.377 95.1106C312.656 102.863 317 116.789 317 123.796C317 155.516 311.506 185.162 300.671 211.909C291.921 233.559 279.519 253.546 264.006 271C234.075 304.683 204.135 316.624 203.846 316.729C200.268 317.96 196.504 318.561 192.72 318.505ZM185.68 301.065C188.275 301.647 194.251 302.52 198.146 301.099C203.094 299.295 228.153 286.3 251.569 259.949C283.923 223.54 300.339 177.771 300.363 123.913C300.305 122.821 299.53 115.039 289.224 110.132C273.735 102.756 197.757 71.6886 196.992 71.3754L196.782 71.2865C195.19 70.6192 190.122 69.2138 186.629 71.0442L185.93 71.3703C185.083 71.7181 101.149 106.192 92.1969 109.922C85.9349 112.531 83.7038 118.995 83.7038 124.174C83.7038 124.552 83.694 125.103 83.6802 125.814C82.9647 162.666 91.4924 253.346 185.68 301.065Z" fill="#1760A5"/>
<path opacity="0.1" d="M191.844 90.8997V276.473C191.844 276.473 106.39 235.339 107.147 127.199L191.844 90.8997Z" fill="#1760A5"/>
<path d="M192.959 224.274L165.737 189.273L181.568 176.961L194.457 193.533L237.999 147.568L252.56 161.364L192.959 224.274Z" fill="#1760A5"/>
</svg>
