<svg width="384" height="384" viewBox="0 0 384 384" fill="none" xmlns="http://www.w3.org/2000/svg">
<path d="M383.998 192C383.985 227.632 374.066 262.559 355.35 292.879C336.633 323.199 309.856 347.719 278.008 363.7C276.378 364.52 274.732 365.317 273.068 366.09C230.082 386.039 181.253 389.453 135.908 375.68C131.458 374.32 127.078 372.807 122.768 371.14C83.354 355.893 50.0688 328.072 28.0711 291.988C6.07345 255.904 -3.40849 213.572 1.0947 171.552C5.5979 129.532 23.8348 90.1709 52.9792 59.5677C82.1236 28.9645 120.548 8.82847 162.298 2.28001C172.125 0.759455 182.055 -0.0027929 191.998 7.68904e-06C298.038 7.68904e-06 383.998 85.9599 383.998 192Z" fill="#F2F2F2"/>
<path d="M102.257 248.57C95.2424 248.57 88.5152 251.356 83.5551 256.316C78.5951 261.276 75.8086 268.004 75.8086 275.018C75.8086 282.033 78.5951 288.76 83.5551 293.72C88.5152 298.68 95.2424 301.467 102.257 301.467H299.36C306.375 301.467 313.102 298.68 318.062 293.72C323.022 288.76 325.809 282.033 325.809 275.018C325.809 268.004 323.022 261.276 318.062 256.316C313.102 251.356 306.375 248.57 299.36 248.57H102.257Z" fill="#E5E5E5"/>
<path d="M102.257 253.923C96.6619 253.923 91.2961 256.145 87.3399 260.102C83.3837 264.058 81.1611 269.424 81.1611 275.019C81.1611 280.614 83.3837 285.979 87.3399 289.936C91.2961 293.892 96.6619 296.114 102.257 296.114H299.36C304.955 296.114 310.321 293.892 314.277 289.936C318.233 285.979 320.456 280.614 320.456 275.019C320.456 269.424 318.233 264.058 314.277 260.102C310.321 256.145 304.955 253.923 299.36 253.923H102.257Z" fill="white"/>
<path d="M145.794 287.632H106.578C106.453 287.633 106.33 287.609 106.215 287.562C106.099 287.515 105.994 287.446 105.906 287.358C105.817 287.27 105.747 287.166 105.699 287.051C105.652 286.936 105.627 286.812 105.627 286.688C105.627 286.563 105.652 286.44 105.699 286.325C105.747 286.21 105.817 286.105 105.906 286.018C105.994 285.93 106.099 285.86 106.215 285.813C106.33 285.766 106.453 285.742 106.578 285.743H145.794C146.044 285.745 146.282 285.845 146.458 286.022C146.634 286.199 146.732 286.438 146.732 286.688C146.732 286.937 146.634 287.176 146.458 287.353C146.282 287.53 146.044 287.631 145.794 287.632Z" fill="#1760A5"/>
<path d="M195.542 287.947H156.326C156.201 287.948 156.078 287.924 155.963 287.877C155.847 287.83 155.742 287.76 155.654 287.672C155.566 287.585 155.495 287.48 155.448 287.365C155.4 287.25 155.375 287.127 155.375 287.002C155.375 286.878 155.4 286.754 155.448 286.639C155.495 286.524 155.566 286.42 155.654 286.332C155.742 286.244 155.847 286.175 155.963 286.128C156.078 286.081 156.201 286.057 156.326 286.058H195.542C195.667 286.057 195.79 286.081 195.906 286.128C196.021 286.175 196.126 286.244 196.214 286.332C196.303 286.42 196.373 286.524 196.421 286.639C196.469 286.754 196.493 286.878 196.493 287.002C196.493 287.127 196.469 287.25 196.421 287.365C196.373 287.48 196.303 287.585 196.214 287.672C196.126 287.76 196.021 287.83 195.906 287.877C195.79 287.924 195.667 287.948 195.542 287.947Z" fill="#1760A5"/>
<path d="M245.291 288.262H206.075C205.825 288.26 205.587 288.16 205.411 287.983C205.235 287.806 205.137 287.567 205.137 287.317C205.137 287.068 205.235 286.828 205.411 286.651C205.587 286.475 205.825 286.374 206.075 286.373H245.291C245.416 286.372 245.539 286.396 245.655 286.443C245.77 286.49 245.875 286.559 245.963 286.647C246.052 286.735 246.122 286.839 246.17 286.954C246.218 287.069 246.242 287.193 246.242 287.317C246.242 287.442 246.218 287.565 246.17 287.68C246.122 287.795 246.052 287.9 245.963 287.987C245.875 288.075 245.77 288.145 245.655 288.192C245.539 288.239 245.416 288.263 245.291 288.262Z" fill="#1760A5"/>
<path d="M295.039 288.577H255.823C255.574 288.575 255.335 288.475 255.159 288.298C254.983 288.121 254.885 287.882 254.885 287.633C254.885 287.383 254.983 287.144 255.159 286.967C255.335 286.79 255.574 286.69 255.823 286.688H295.039C295.289 286.69 295.527 286.79 295.703 286.967C295.879 287.144 295.977 287.383 295.977 287.633C295.977 287.882 295.879 288.121 295.703 288.298C295.527 288.475 295.289 288.575 295.039 288.577Z" fill="#1760A5"/>
<path d="M126.1 278.939C130.126 278.939 133.389 275.676 133.389 271.65C133.389 267.625 130.126 264.362 126.1 264.362C122.075 264.362 118.812 267.625 118.812 271.65C118.812 275.676 122.075 278.939 126.1 278.939Z" fill="#1760A5"/>
<path d="M176.149 278.939C180.174 278.939 183.438 275.676 183.438 271.65C183.438 267.625 180.174 264.362 176.149 264.362C172.124 264.362 168.86 267.625 168.86 271.65C168.86 275.676 172.124 278.939 176.149 278.939Z" fill="#1760A5"/>
<path d="M226.198 278.939C230.223 278.939 233.486 275.676 233.486 271.65C233.486 267.625 230.223 264.362 226.198 264.362C222.172 264.362 218.909 267.625 218.909 271.65C218.909 275.676 222.172 278.939 226.198 278.939Z" fill="#1760A5"/>
<path d="M276.246 278.939C280.271 278.939 283.534 275.676 283.534 271.65C283.534 267.625 280.271 264.362 276.246 264.362C272.22 264.362 268.957 267.625 268.957 271.65C268.957 275.676 272.22 278.939 276.246 278.939Z" fill="#1760A5"/>
<path d="M238.469 228.42C244.286 228.42 249 223.705 249 217.889C249 212.073 244.286 207.358 238.469 207.358C232.653 207.358 227.938 212.073 227.938 217.889C227.938 223.705 232.653 228.42 238.469 228.42Z" fill="#1760A5"/>
<path d="M237.342 108.001C220.884 108.117 207.408 121.492 207.174 137.949C207.172 138.101 207.171 139.169 207.171 140.567C207.171 142.616 207.985 144.581 209.434 146.029C210.882 147.478 212.847 148.292 214.896 148.292C215.912 148.292 216.917 148.092 217.856 147.703C218.794 147.314 219.646 146.744 220.364 146.025C221.082 145.307 221.651 144.454 222.039 143.515C222.427 142.576 222.626 141.571 222.625 140.555C222.624 139.604 222.624 138.946 222.624 138.906C222.623 136.363 223.285 133.863 224.544 131.653C225.802 129.442 227.614 127.598 229.802 126.301C231.99 125.003 234.478 124.298 237.021 124.253C239.564 124.209 242.074 124.828 244.306 126.048C246.537 127.268 248.413 129.049 249.748 131.214C251.083 133.379 251.831 135.854 251.919 138.396C252.007 140.938 251.432 143.459 250.25 145.711C249.068 147.963 247.32 149.869 245.178 151.241L245.181 151.244C245.181 151.244 234.186 158.323 230.834 168.033L230.837 168.034C230.247 170.023 229.948 172.087 229.95 174.162C229.95 175.015 230 182.477 230.097 188.534C230.131 190.624 230.985 192.616 232.475 194.082C233.965 195.548 235.971 196.369 238.061 196.369C239.112 196.368 240.152 196.161 241.121 195.757C242.091 195.354 242.971 194.763 243.711 194.018C244.452 193.273 245.037 192.389 245.435 191.417C245.832 190.445 246.033 189.404 246.027 188.353C245.993 182.807 245.975 176.348 245.975 175.879C245.975 169.916 251.727 163.976 256.452 160.101C261.893 155.64 265.808 149.561 267.381 142.703C267.729 141.291 267.92 139.845 267.953 138.391C267.953 134.382 267.159 130.412 265.618 126.71C264.077 123.009 261.819 119.649 258.974 116.824C256.128 113.999 252.752 111.765 249.04 110.251C245.327 108.737 241.352 107.972 237.342 108.001Z" fill="#1760A5"/>
<path d="M217.077 144.639C215.028 144.639 213.063 143.825 211.615 142.376C210.166 140.927 209.352 138.962 209.352 136.913C209.352 135.516 209.353 134.448 209.355 134.296C209.42 129.509 210.625 124.808 212.871 120.581C209.181 125.632 207.153 131.704 207.066 137.959C207.063 138.111 207.062 139.179 207.063 140.576C207.063 142.625 207.877 144.59 209.325 146.039C210.774 147.488 212.739 148.302 214.788 148.302C216.471 148.301 218.109 147.751 219.451 146.735C220.793 145.719 221.768 144.292 222.225 142.672C220.811 143.941 218.977 144.641 217.077 144.639Z" fill="#3F3D56"/>
<path d="M237.865 124.278C240.233 124.392 242.539 125.078 244.584 126.278C246.629 127.479 248.352 129.158 249.605 131.171C250.858 133.184 251.604 135.471 251.779 137.836C251.953 140.201 251.551 142.573 250.607 144.748C251.973 143.144 252.976 141.265 253.55 139.238C254.123 137.211 254.253 135.085 253.93 133.003C253.607 130.922 252.839 128.934 251.678 127.177C250.517 125.419 248.991 123.932 247.204 122.818C245.417 121.703 243.41 120.987 241.321 120.718C239.232 120.45 237.109 120.635 235.098 121.261C233.087 121.887 231.234 122.939 229.666 124.346C228.099 125.753 226.853 127.481 226.014 129.413C227.464 127.707 229.287 126.356 231.342 125.466C233.396 124.576 235.628 124.17 237.865 124.278Z" fill="#3F3D56"/>
<path d="M240.243 192.713C238.153 192.714 236.146 191.893 234.656 190.427C233.166 188.961 232.312 186.968 232.278 184.879C232.181 178.822 232.131 171.36 232.131 170.507C232.13 168.432 232.428 166.368 233.018 164.379L233.015 164.378C233.363 163.379 233.784 162.408 234.273 161.47C232.771 163.472 231.575 165.687 230.726 168.041L230.729 168.042C230.139 170.031 229.84 172.095 229.842 174.17C229.842 175.022 229.892 182.485 229.989 188.542C230.023 190.631 230.877 192.624 232.367 194.09C233.857 195.555 235.863 196.377 237.954 196.376C239.677 196.376 241.354 195.817 242.732 194.783C244.111 193.749 245.117 192.296 245.6 190.642C244.136 191.977 242.225 192.716 240.243 192.713Z" fill="#3F3D56"/>
<path d="M236.151 225.85C234.655 225.199 233.331 224.208 232.283 222.957C231.235 221.706 230.493 220.229 230.114 218.642C229.735 217.055 229.73 215.401 230.099 213.812C230.469 212.223 231.202 210.741 232.243 209.484C231.037 210.364 230.032 211.491 229.294 212.79C228.557 214.089 228.105 215.529 227.967 217.016C227.829 218.503 228.009 220.003 228.495 221.415C228.981 222.827 229.761 224.119 230.785 225.207C231.808 226.294 233.052 227.151 234.432 227.721C235.812 228.291 237.298 228.561 238.79 228.513C240.283 228.466 241.748 228.101 243.089 227.443C244.429 226.786 245.615 225.85 246.567 224.7C245.082 225.785 243.34 226.462 241.512 226.664C239.685 226.865 237.836 226.585 236.151 225.85Z" fill="#3F3D56"/>
<path d="M161.299 108.099C155.558 108.099 150.903 112.753 150.903 118.494C150.903 124.235 155.558 128.89 161.299 128.89C167.04 128.89 171.694 124.235 171.694 118.494C171.694 112.753 167.04 108.099 161.299 108.099Z" fill="#1760A5"/>
<path d="M163.216 226.153C179.463 226.038 192.765 212.836 192.996 196.59C192.998 196.44 192.999 195.385 192.999 194.006C192.999 191.983 192.195 190.044 190.765 188.614C189.335 187.184 187.396 186.38 185.373 186.38C184.371 186.38 183.378 186.578 182.452 186.962C181.526 187.346 180.684 187.909 179.976 188.618C179.267 189.327 178.705 190.169 178.322 191.096C177.939 192.022 177.743 193.015 177.744 194.018C177.744 194.956 177.745 195.605 177.745 195.645C177.745 198.156 177.092 200.624 175.85 202.805C174.607 204.987 172.818 206.808 170.659 208.089C168.499 209.369 166.044 210.066 163.533 210.109C161.023 210.153 158.544 209.543 156.342 208.338C154.139 207.133 152.288 205.376 150.97 203.239C149.652 201.102 148.914 198.658 148.827 196.149C148.74 193.64 149.308 191.151 150.474 188.928C151.641 186.705 153.366 184.823 155.48 183.469L155.478 183.466C155.478 183.466 166.332 176.478 169.641 166.893L169.638 166.892C170.22 164.929 170.515 162.891 170.513 160.843C170.513 160.001 170.464 152.635 170.368 146.656C170.335 144.593 169.491 142.626 168.021 141.179C166.55 139.732 164.569 138.922 162.506 138.922C161.469 138.922 160.443 139.127 159.485 139.525C158.528 139.924 157.659 140.507 156.929 141.243C156.198 141.978 155.62 142.85 155.227 143.81C154.835 144.77 154.636 145.797 154.643 146.834C154.676 152.31 154.694 158.685 154.694 159.148C154.694 165.034 149.016 170.898 144.352 174.723C138.981 179.126 135.116 185.128 133.564 191.898C133.22 193.291 133.031 194.719 132.999 196.154C132.999 200.112 133.782 204.03 135.303 207.684C136.825 211.338 139.054 214.655 141.863 217.443C144.671 220.232 148.004 222.437 151.669 223.932C155.334 225.427 159.258 226.182 163.216 226.153Z" fill="#1760A5"/>
<path d="M182.416 190.802C184.439 190.803 186.378 191.606 187.808 193.036C189.238 194.466 190.042 196.406 190.042 198.429C190.042 199.808 190.041 200.863 190.039 201.013C189.975 205.737 188.785 210.378 186.568 214.551C190.21 209.565 192.213 203.571 192.299 197.397C192.301 197.247 192.302 196.192 192.302 194.813C192.302 192.79 191.498 190.851 190.068 189.42C188.638 187.99 186.698 187.187 184.676 187.186C183.014 187.187 181.398 187.73 180.073 188.733C178.747 189.736 177.786 191.144 177.334 192.744C178.73 191.492 180.541 190.8 182.416 190.802Z" fill="#3F3D56"/>
<path d="M161.895 210.899C159.557 210.788 157.281 210.11 155.262 208.925C153.244 207.74 151.543 206.083 150.306 204.095C149.069 202.108 148.332 199.85 148.16 197.516C147.988 195.182 148.385 192.84 149.317 190.693C147.969 192.276 146.978 194.131 146.412 196.132C145.846 198.133 145.718 200.232 146.037 202.287C146.356 204.341 147.114 206.303 148.259 208.038C149.405 209.774 150.912 211.241 152.676 212.341C154.44 213.442 156.421 214.148 158.484 214.414C160.546 214.679 162.641 214.496 164.626 213.878C166.612 213.26 168.441 212.222 169.988 210.833C171.536 209.444 172.765 207.738 173.594 205.831C172.162 207.515 170.363 208.848 168.334 209.727C166.306 210.605 164.103 211.007 161.895 210.899Z" fill="#3F3D56"/>
<path d="M159.549 143.344C161.612 143.344 163.593 144.155 165.064 145.601C166.535 147.048 167.378 149.015 167.411 151.078C167.507 157.057 167.557 164.423 167.557 165.265C167.558 167.313 167.263 169.351 166.681 171.315L166.684 171.315C166.34 172.301 165.925 173.26 165.442 174.186C166.925 172.209 168.105 170.023 168.944 167.699L168.941 167.699C169.523 165.735 169.818 163.698 169.816 161.65C169.816 160.808 169.767 153.441 169.671 147.462C169.638 145.4 168.795 143.432 167.324 141.986C165.853 140.539 163.872 139.728 161.809 139.729C160.108 139.729 158.453 140.281 157.092 141.301C155.731 142.322 154.737 143.756 154.261 145.389C155.706 144.071 157.593 143.342 159.549 143.344Z" fill="#3F3D56"/>
<path d="M163.589 110.634C165.066 111.278 166.373 112.255 167.407 113.49C168.441 114.725 169.174 116.183 169.548 117.75C169.923 119.316 169.927 120.949 169.563 122.518C169.198 124.086 168.474 125.549 167.447 126.79C168.637 125.921 169.629 124.808 170.357 123.526C171.085 122.244 171.531 120.822 171.668 119.354C171.804 117.887 171.626 116.407 171.146 115.013C170.667 113.619 169.896 112.343 168.886 111.27C167.875 110.196 166.648 109.35 165.286 108.787C163.923 108.225 162.457 107.958 160.983 108.005C159.51 108.053 158.064 108.413 156.74 109.062C155.417 109.711 154.246 110.634 153.307 111.77C154.772 110.699 156.493 110.031 158.297 109.831C160.101 109.632 161.925 109.909 163.589 110.634Z" fill="#3F3D56"/>
</svg>
