<svg width="652" height="452" viewBox="0 0 652 452" fill="none" xmlns="http://www.w3.org/2000/svg">
<path d="M303.594 182.348L294.094 186.348V195.848H305.094V193.848L301.094 192.348L302.094 190.348L307.594 189.348L311.094 186.848L312.594 184.848L306.594 183.848L303.594 182.348Z" fill="#FFB6B6"/>
<path d="M1.59375 124.848L14.0938 133.848L17.5938 129.348L19.0938 124.848L15.5938 119.848L11.5938 114.348L3.09375 112.348L0.09375 114.348L7.09375 123.348L1.59375 124.848Z" fill="#FFB6B6"/>
<path d="M108.094 173.848C104.958 202.073 104.896 218.394 111.094 249.348C130.167 262.496 151.909 258.092 198.094 242.348L194.594 199.848C206.113 215.672 215.324 219.042 234.594 219.348C265.089 212.591 277.672 207.33 293.594 195.848V186.348H230.594C224.487 167.824 220.154 157.825 210.594 140.848C207.85 136.694 205.264 134.288 198.094 129.848C190.95 125.164 187.475 122.181 174.594 121.348C167.961 124.378 163.844 125.908 147.594 124.848C144.002 122.375 142.938 120.367 143.094 115.348C133 115.053 127.324 115.364 117.094 118.848C99.5567 126.238 89.9235 131.311 73.5938 144.348H59.0938C45.5491 135.235 37.2774 130.727 20.0938 124.848L13.5938 134.848C26.259 153.247 36.4604 162.936 59.0938 179.348C79.3912 179.826 90.2905 179.01 108.094 173.848Z" fill="#E6E6E6"/>
<path d="M115.594 450.348C121.693 442.951 126.544 440.025 137.594 436.848H156.594C159.749 441.464 160.507 444.334 158.594 450.348H115.594Z" fill="#333333"/>
<path d="M229.594 374.848L184.094 364.348L218.094 342.848L240.094 353.848C240.869 363.349 238.832 368.018 229.594 374.848Z" fill="#FFB6B6"/>
<path d="M253.094 360.848L239.594 353.848C240.156 363.534 237.852 368.021 229.094 374.348L245.094 376.348C250.457 369.559 252.128 366.204 253.094 360.848Z" fill="#1760A5"/>
<path d="M244.721 376.348C249.647 371.128 251.38 367.915 252.721 361.848C260.356 362.423 264.118 363.387 268.221 368.348L244.721 404.848C243.912 394.074 243.858 387.782 244.721 376.348Z" fill="#333333"/>
<path d="M101.593 347.348C101.076 308.123 103.277 286.579 111.093 248.848C116.87 253.657 120.302 256.258 133.593 257.348C154.029 255.129 173.426 252.558 168.093 252.848C165.663 252.98 188.426 246.015 197.093 242.848C202.106 255.16 205.143 262.782 206.093 277.848C207.043 292.914 210.067 296.284 210.093 296.848C211.487 299.02 216.14 305.323 237.593 333.848C230.607 334.597 224.511 337.519 206.093 351.348C192.375 358.654 182.45 364.154 158.593 377.848C149.417 382.311 143.618 384.471 127.593 385.348C121.242 385.941 117.639 385.314 111.093 381.348C103.513 368.201 101.54 360.763 101.593 347.348Z" fill="#1760A5"/>
<path d="M133.094 421.848L122.594 385.848L153.094 380.848L154.594 421.848C147.568 423.561 142.791 423.475 133.094 421.848Z" fill="#FFB6B6"/>
<path d="M137.594 436.848L133.094 421.848C141.847 423.963 146.677 424.076 155.094 421.848V436.848H137.594Z" fill="#1760A5"/>
<path d="M146.595 103.348C146.783 106.585 145.891 109.329 143.095 115.348C143.009 120.119 144.047 122.312 148.095 125.348C159.295 126.521 165.045 125.804 174.095 121.348C175.779 110.858 175.744 105.172 174.095 95.3481C172.459 98.4716 171.198 100.226 166.095 103.348C160.879 104.848 157.323 105.294 146.595 103.348Z" fill="#E6A4A4"/>
<path d="M142.594 59.8483C140.188 64.7064 141.238 67.3104 145.094 71.8483L174.094 95.3483C187.763 92.7011 192.256 88.5171 197.094 78.3483C198.045 72.8341 197.894 70.218 195.094 67.3483C199.057 65.2834 200.454 63.5449 202.094 59.8483C203.762 54.4844 204.032 52.1337 203.594 48.8483C201.389 44.8942 199.994 43.4285 197.094 42.8483C192.496 39.9336 183.578 41.7665 181.094 40.8483C179.49 40.2552 174.993 43.1691 174.094 47.8483C171.131 44.6172 164.642 45.0887 161.094 45.8483C157.648 46.586 145.779 54.1704 142.594 59.8483Z" fill="#D9D9D9"/>
<path d="M140.093 95.8481C139.279 85.8441 140.216 80.6576 145.093 72.3481C148.697 66.1378 151.13 65.3809 155.593 64.8481C158.29 79.7221 163.505 83.4017 174.093 88.3481V95.8481C171.737 101.632 167.99 103.746 155.593 104.848C146.778 102.918 143.232 101.03 140.093 95.8481Z" fill="#FFB6B6"/>
<path d="M442.906 81.8481C442.919 76.9327 441.887 74.3496 439.406 69.8481C451.288 68.8362 455.389 65.5688 460.906 57.8481L466.406 66.8481L474.906 72.8481L485.406 77.8481L474.906 93.3481H447.406L442.906 81.8481Z" fill="#E6A4A4"/>
<path d="M649.906 94.8481L629.406 115.848L633.906 124.848L636.406 122.848L649.906 119.848L651.906 115.848H645.906L651.906 97.8481V94.8481H649.906Z" fill="#FFB6B6"/>
<path d="M328.906 224.848L347.906 220.848L341.906 210.848L326.906 208.848L321.906 210.848L314.906 212.848L313.406 217.348L321.906 219.348L333.906 217.348L326.906 222.348L328.906 224.848Z" fill="#FFB6B6"/>
<path d="M373.406 435.348C369.171 437.895 368.276 439.438 368.906 442.348L406.906 451.348H421.406C425.093 443.501 425.386 440.436 425.406 435.348C413.873 437.338 407.914 436.698 398.406 431.848C397.897 433.402 391.14 435.662 387.906 435.348C386.712 435.232 377.739 435.348 373.406 435.348Z" fill="#333333"/>
<path d="M541.906 451.348H489.906C489.188 448.229 490.492 446.882 494.406 444.848C503.578 444.282 507.697 442.629 514.406 438.848C527.561 439.051 536.913 440.015 543.406 437.348L541.906 451.348Z" fill="#333333"/>
<path d="M373.406 435.348C369.171 437.895 368.276 439.438 368.906 442.348L406.906 451.348H421.406C425.093 443.501 425.386 440.436 425.406 435.348C413.873 437.338 407.914 436.698 398.406 431.848C397.897 433.402 391.14 435.662 387.906 435.348C386.712 435.232 377.739 435.348 373.406 435.348Z" stroke="black"/>
<path d="M541.906 451.348H489.906C489.188 448.229 490.492 446.882 494.406 444.848C503.578 444.282 507.697 442.629 514.406 438.848C527.561 439.051 536.913 440.015 543.406 437.348L541.906 451.348Z" stroke="black"/>
<path d="M399.406 431.348L455.906 221.348C486.532 222.536 534.715 209.028 538.906 204.348C542.303 200.556 548.684 266.851 543.406 298.848L546.406 312.848C550.117 361.084 548.415 388.125 543.406 436.348C532.703 440.575 526.352 441.719 512.906 436.348L490.906 305.348L479.406 328.848C474.106 356.04 467.76 374.607 427.406 436.348L399.406 431.348Z" fill="#1760A5"/>
<path d="M529.406 144.848C540.515 173.661 545.514 188.896 537.406 203.348C506.447 217.887 488.328 221.36 454.906 220.848C451.695 203.366 450.596 194.273 451.406 180.848C448.994 167.773 447.303 161.994 442.406 160.348L420.906 188.848C415.524 198.111 411.754 202.551 400.906 206.348C377.988 216.289 366.327 220.388 349.406 222.848C343.175 217.541 341.33 214.024 342.406 206.348C368.552 190.994 381.374 183.115 393.406 173.348C402.533 137.545 408.087 118.817 420.906 94.3481C431.646 82.1798 436.249 79.5505 442.406 80.8481C447.534 89.4718 450.882 88.2207 456.906 85.3481C468.624 77.2563 471.143 74.6492 474.906 70.3481C490.022 66.3481 498.123 66.3481 511.906 70.3481C532.275 92.8294 544.626 103.773 566.906 122.848C582.906 120.181 616.606 114.648 623.406 113.848C630.206 113.048 633.906 122.848 634.906 127.848L566.906 154.848L529.406 144.848Z" fill="#333333"/>
<path d="M413.906 19.8482C415.012 25.9607 416.858 29.4889 420.906 35.8482L461.906 53.8482C464.842 48.7631 469.396 32.6511 468.906 29.3482C468.73 28.1612 468.906 20.5149 468.906 16.8482C467.937 14.3764 467.375 12.979 461.906 7.84819C458.408 4.67599 454.779 3.59999 447.906 1.84819C439.761 -0.215665 434.999 -0.986503 424.406 1.84819C418.358 7.5395 415.994 11.3937 413.906 19.8482Z" fill="#D9D9D9"/>
<path d="M424.906 56.3479C422.406 48.8479 423.242 42.2555 421.406 35.8476L422.906 31.3476L426.406 26.8476C430.56 25.2454 432.432 25.2158 435.406 25.8476C440.861 26.6006 443.542 28.2372 445.906 30.8476C450.918 29.2926 453.398 29.3976 457.406 30.8476L457.906 37.3476V44.0976L460.906 55.0976L460.406 59.8476L454.406 65.3476L450.906 67.3476L442.406 69.8476H433.906L427.406 68.3476C425.288 66.9508 427.406 63.8479 424.906 56.3479Z" fill="#FFB6B6"/>
<path d="M429.906 58.8481L427.906 62.3481L425.906 58.8481L427.906 57.3481C427.906 56.3481 428.306 54.3481 429.906 54.3481H432.406H434.406H437.406C438.573 55.3481 441.206 57.3481 442.406 57.3481C443.606 57.3481 443.906 58.3481 443.906 58.8481V60.3481H442.406H437.406L435.906 58.8481L432.406 57.3481L429.906 58.8481Z" fill="#D9D9D9"/>
</svg>
