<svg width="454" height="449" viewBox="0 0 454 449" fill="none" xmlns="http://www.w3.org/2000/svg">
<g clip-path="url(#clip0_79_1280)">
<path d="M183.497 361.478C182.653 360.126 179 361.573 178.329 360.347C177.66 359.125 181.053 357.263 182.992 353.01C183.342 352.243 185.545 347.409 183.914 345.918C180.822 343.091 166.674 354.757 161.723 350.939C160.637 350.102 159.878 348.429 156.589 345.713C155.281 344.633 154.49 344.145 153.724 344.327C152.638 344.584 152.552 345.964 151.387 348.678C149.64 352.747 148.606 352.502 147.589 355.748C146.833 358.159 147.006 359.56 146.116 359.833C144.858 360.219 143.7 357.663 142.105 357.892C140.478 358.125 139.494 361.102 139.184 363.33C138.601 367.513 140.219 370.272 141.116 373.174C142.09 376.328 142.669 381.124 140.418 387.913L118.141 447.491C123.059 435.266 137.299 401.753 143.283 389.3C145.01 385.705 146.918 382.058 150.834 380.619C154.604 379.233 159.782 380.061 166.384 378.551C167.155 378.375 169.295 377.858 169.564 376.664C169.787 375.676 168.528 375.125 168.721 374.2C168.981 372.959 171.456 372.944 174.497 371.513C176.641 370.504 177.977 369.303 179.126 368.271C179.472 367.96 184.621 363.277 183.497 361.478Z" fill="#F2F2F2"/>
<path d="M95.8528 392.842C94.9104 392.845 94.6047 394.964 93.7768 394.923C92.9519 394.883 92.9684 392.764 91.3285 390.634C91.0328 390.25 89.1692 387.829 87.9274 388.158C85.5735 388.783 87.5239 398.74 84.1212 399.945C83.3745 400.21 82.2905 400.081 79.9375 400.829C79.0014 401.127 78.5209 401.355 78.3939 401.764C78.2136 402.344 78.9023 402.783 79.9693 404.108C81.5695 406.096 81.1443 406.507 82.5294 407.918C83.5577 408.965 84.332 409.289 84.2166 409.782C84.0534 410.48 82.3973 410.282 82.0556 411.091C81.7069 411.916 82.9621 413.233 84.0249 414.021C86.0191 415.499 87.913 415.542 89.6722 415.961C91.5841 416.417 94.2308 417.531 97.092 420.539L121.47 448.107C116.568 442.289 103.348 425.985 98.6356 419.604C97.2751 417.762 95.9399 415.822 96.3258 413.582C96.6972 411.425 98.619 409.252 99.7432 405.741C99.8746 405.331 100.225 404.185 99.6848 403.715C99.2384 403.326 98.5903 403.753 98.1678 403.396C97.6012 402.918 98.3073 401.76 98.4447 399.93C98.5416 398.64 98.3064 397.671 98.1041 396.838C98.0432 396.587 97.1072 392.837 95.8528 392.842Z" fill="#F2F2F2"/>
<path d="M114.652 396.848L114.084 392.037L114.343 391.672C115.544 389.986 116.156 388.339 116.163 386.776C116.164 386.527 116.152 386.278 116.14 386.025C116.091 385.022 116.03 383.774 116.715 382.32C117.099 381.51 118.178 379.633 119.801 379.865C120.237 379.923 120.568 380.113 120.819 380.336C120.855 380.281 120.893 380.225 120.934 380.165C121.439 379.433 121.839 379.119 122.225 378.817C122.521 378.585 122.827 378.346 123.306 377.779C123.517 377.53 123.681 377.312 123.819 377.129C124.239 376.573 124.787 375.911 125.753 375.923C126.786 375.969 127.327 376.78 127.686 377.317C128.326 378.274 128.615 378.964 128.808 379.421C128.877 379.589 128.957 379.777 128.997 379.835C129.33 380.299 132.036 379.865 133.055 379.707C135.344 379.345 137.325 379.031 138.141 380.402C138.726 381.382 138.292 382.678 136.811 384.357C136.35 384.88 135.859 385.277 135.424 385.589C135.785 385.793 136.108 386.107 136.239 386.599C136.547 387.765 135.491 388.934 133.101 390.076C132.508 390.362 131.709 390.743 130.589 390.927C130.062 391.013 129.587 391.033 129.181 391.045C129.172 391.268 129.117 391.51 128.974 391.758C128.554 392.49 127.681 392.838 126.364 392.755C124.915 392.683 123.722 392.42 122.67 392.19C121.751 391.99 120.959 391.821 120.338 391.86C119.185 391.949 118.297 392.824 117.254 393.96L114.652 396.848Z" fill="#F2F2F2"/>
<path d="M117.285 368.205L112.527 369.946L112.089 369.801C110.066 369.126 108.233 368.982 106.638 369.372C106.384 369.434 106.134 369.508 105.879 369.584C104.869 369.883 103.613 370.256 101.958 369.996C101.034 369.848 98.8477 369.334 98.6729 367.785C98.6213 367.369 98.7316 367.018 98.8952 366.731C98.8291 366.711 98.7626 366.69 98.6908 366.669C97.817 366.39 97.396 366.102 96.9904 365.825C96.6786 365.612 96.3572 365.392 95.6579 365.095C95.3513 364.965 95.0872 364.87 94.8651 364.79C94.1929 364.545 93.3792 364.21 93.1459 363.319C92.9313 362.359 93.6202 361.657 94.0761 361.192C94.8891 360.361 95.5185 359.92 95.9361 359.628C96.0889 359.521 96.2605 359.4 96.3094 359.349C96.6984 358.925 95.5695 356.551 95.15 355.656C94.2001 353.646 93.378 351.906 94.5676 350.809C95.4182 350.024 96.8493 350.094 98.9363 351.027C99.586 351.318 100.115 351.668 100.543 351.989C100.66 351.606 100.897 351.229 101.366 350.984C102.476 350.405 103.935 351.079 105.705 352.983C106.147 353.455 106.738 354.092 107.209 355.074C107.43 355.536 107.572 355.967 107.687 356.337C107.916 356.288 108.176 356.277 108.466 356.346C109.318 356.545 109.895 357.259 110.144 358.489C110.438 359.838 110.473 361 110.505 362.024C110.535 362.919 110.563 363.688 110.761 364.249C111.143 365.285 112.261 365.879 113.683 366.548L117.285 368.205Z" fill="#F2F2F2"/>
<path d="M114.652 354.032L114.084 349.221L114.343 348.857C115.544 347.17 116.156 345.523 116.163 343.96C116.164 343.712 116.152 343.463 116.14 343.21C116.091 342.206 116.03 340.959 116.715 339.505C117.099 338.694 118.178 336.817 119.801 337.05C120.237 337.108 120.568 337.298 120.819 337.521C120.855 337.465 120.893 337.41 120.934 337.349C121.439 336.617 121.839 336.304 122.225 336.002C122.521 335.77 122.827 335.53 123.306 334.964C123.517 334.715 123.681 334.497 123.819 334.313C124.239 333.758 124.787 333.096 125.753 333.108C126.786 333.154 127.327 333.965 127.686 334.501C128.326 335.458 128.615 336.148 128.808 336.606C128.877 336.773 128.957 336.961 128.997 337.019C129.33 337.484 132.036 337.049 133.055 336.892C135.344 336.529 137.325 336.216 138.141 337.586C138.726 338.566 138.292 339.863 136.811 341.542C136.35 342.065 135.859 342.462 135.424 342.773C135.785 342.978 136.108 343.291 136.239 343.784C136.547 344.95 135.491 346.118 133.101 347.261C132.508 347.547 131.709 347.928 130.589 348.111C130.062 348.197 129.587 348.218 129.181 348.23C129.172 348.453 129.117 348.694 128.974 348.943C128.554 349.674 127.681 350.023 126.364 349.939C124.915 349.867 123.722 349.605 122.67 349.375C121.751 349.175 120.959 349.005 120.338 349.045C119.185 349.133 118.297 350.009 117.254 351.145L114.652 354.032Z" fill="#F2F2F2"/>
<path d="M119.838 447.412L118.776 446.78L117.538 446.915C117.518 446.806 117.451 446.555 117.349 446.162C116.795 444.011 115.105 437.466 113.695 427.157C112.712 419.96 112.155 412.562 112.04 405.163C111.925 397.753 112.294 392.144 112.591 387.635C112.814 384.234 113.086 380.996 113.353 377.842C114.063 369.414 114.732 361.454 114.234 352.641C114.124 350.673 113.892 346.578 111.372 342.22C109.91 339.693 107.896 337.449 105.385 335.553L106.946 333.69C109.718 335.786 111.946 338.271 113.569 341.077C116.364 345.909 116.616 350.371 116.737 352.515C117.244 361.484 116.567 369.521 115.85 378.03C115.586 381.173 115.314 384.397 115.092 387.784C114.798 392.251 114.432 397.811 114.546 405.126C114.658 412.436 115.209 419.744 116.179 426.85C117.572 437.029 119.237 443.477 119.784 445.596C120.075 446.727 120.137 446.964 119.838 447.412Z" fill="#F2F2F2"/>
<path d="M100.788 339.333C100.685 339.333 100.581 339.331 100.476 339.324C98.342 339.214 96.3659 338.002 94.6015 335.721C93.7743 334.648 93.351 333.423 92.5067 330.982C92.3757 330.606 91.7394 328.696 91.3528 326.069C91.0995 324.353 91.1313 323.635 91.4898 323.001C91.8875 322.294 92.5311 321.802 93.2555 321.47C93.2237 321.242 93.2494 321.008 93.3534 320.768C93.7804 319.776 94.9159 319.907 95.5302 319.969C95.841 320.006 96.2289 320.055 96.6474 320.034C97.3056 320.004 97.6593 319.818 98.1952 319.539C98.7079 319.272 99.3454 318.94 100.291 318.757C102.156 318.387 103.719 318.889 104.234 319.054C106.944 319.911 108.28 321.911 109.827 324.227C110.135 324.692 111.194 326.383 111.892 328.701C112.396 330.373 112.325 331.117 112.174 331.67C111.865 332.806 111.137 333.456 109.288 334.891C107.358 336.394 106.388 337.147 105.556 337.605C103.619 338.666 102.403 339.333 100.788 339.333Z" fill="#F2F2F2"/>
<path d="M218.175 443.341L224.738 443.341L227.859 419.314L218.174 419.315L218.175 443.341Z" fill="#FFB6B6"/>
<path d="M240.658 443.2C240.862 443.526 240.97 444.581 240.97 444.961C240.97 446.128 239.973 447.075 238.743 447.075H218.42C217.581 447.075 216.9 446.429 216.9 445.632V444.829C216.9 444.829 215.895 442.415 217.965 439.44C217.965 439.44 220.537 441.77 224.381 438.121L225.515 436.172L233.721 441.868L238.269 442.4C239.264 442.516 240.146 442.382 240.658 443.2Z" fill="#2F2E41"/>
<path d="M198.175 443.341L204.738 443.341L207.859 419.314L198.174 419.315L198.175 443.341Z" fill="#FFB6B6"/>
<path d="M220.658 443.2C220.862 443.526 220.97 444.581 220.97 444.961C220.97 446.128 219.973 447.075 218.743 447.075H198.42C197.581 447.075 196.9 446.429 196.9 445.632V444.829C196.9 444.829 195.895 442.415 197.965 439.44C197.965 439.44 200.537 441.77 204.381 438.121L205.515 436.172L213.721 441.868L218.269 442.4C219.264 442.516 220.146 442.382 220.658 443.2Z" fill="#2F2E41"/>
<path d="M225.754 339.581L232.754 365.311L229.254 431.385L212.754 432.433L211.754 394.397L209.754 433.552L192.754 430.196L191.754 344.056L225.754 339.581Z" fill="#2F2E41"/>
<path d="M157.991 252.95C155.733 249.188 151.857 247.245 149.335 248.61C146.813 249.974 146.6 254.13 148.86 257.893C149.741 259.408 150.991 260.701 152.506 261.663L162.288 277.488L170.014 272.973L159.551 257.851C159.451 256.123 158.916 254.442 157.991 252.95Z" fill="#FFB6B6"/>
<path d="M202.445 308.816C202.445 308.816 193.174 320.945 187.504 316.611C181.833 312.277 150.506 263.556 150.506 263.556L162.939 257.231L202.445 308.816Z" fill="#1760A5"/>
<path d="M193.754 294.02L205.754 276.934L217.754 281.68L214.754 296.867L193.754 294.02Z" fill="#FFB6B6"/>
<path d="M194.754 290.223L215.754 289.273L229.754 293.07L232.754 363.311L190.754 359.514V322.473L184.754 303.511L194.754 290.223Z" fill="#1760A5"/>
<path d="M229.412 337.603C228.674 335.56 228.38 333.404 228.57 331.251C229.107 325.178 229.208 313.279 222.687 307.903L219.003 304.116C218.927 304.037 218.841 303.969 218.763 303.892L224.857 290.294L221.175 288.809L215.519 301.43C213.01 299.981 210.116 299.178 207.122 299.178C203.665 299.178 200.36 300.248 197.629 302.132L194.179 290.135L190.32 291.135L194.634 304.817C194.477 304.999 194.306 305.166 194.157 305.355L192.049 308.04C191.536 308.694 190.97 309.301 190.356 309.871C189.063 311.074 186.539 313.993 186.515 318.489C186.506 320.026 186.173 321.547 185.68 323.011L183.175 330.441C182.94 331.139 182.755 331.849 182.63 332.572C181.525 338.934 177.702 368.91 203.831 368.31C228.188 367.751 229.791 353.673 229.649 348.997C229.618 347.983 229.714 346.976 229.913 345.979C230.279 344.15 230.607 340.914 229.412 337.603Z" fill="#3F3D56"/>
<path d="M339.445 34.187L341.723 67.5672L313.082 73.8051L315.077 46.8157L339.445 34.187Z" fill="#FFB6B6"/>
<path d="M341.625 439.867L328.716 439.865L322.574 392.599L341.628 392.6L341.625 439.867Z" fill="#FFB6B6"/>
<path d="M297.395 439.589C296.993 440.231 296.781 442.305 296.781 443.053C296.781 445.35 298.743 447.212 301.163 447.212H341.143C342.794 447.212 344.133 445.942 344.133 444.374V442.795C344.133 442.795 346.11 438.046 342.039 432.193C342.039 432.193 336.978 436.776 329.415 429.598L327.185 425.763L311.043 436.969L302.095 438.015C300.138 438.243 298.402 437.979 297.395 439.589Z" fill="#2F2E41"/>
<path d="M376.625 439.867L363.716 439.865L357.574 392.599L376.628 392.6L376.625 439.867Z" fill="#FFB6B6"/>
<path d="M332.395 439.589C331.993 440.231 331.781 442.305 331.781 443.053C331.781 445.35 333.743 447.212 336.163 447.212H376.143C377.794 447.212 379.133 445.942 379.133 444.374V442.795C379.133 442.795 381.11 438.046 377.039 432.193C377.039 432.193 371.978 436.776 364.415 429.598L362.185 425.763L346.043 436.969L337.095 438.015C335.138 438.243 333.402 437.979 332.395 439.589Z" fill="#2F2E41"/>
<path d="M384.754 215.236C384.754 215.236 395.754 228.525 393.754 236.118C391.754 243.712 377.754 418.365 377.754 418.365L357.754 417.415L345.754 260.797L342.667 418.365L323.754 417.415L299.754 221.88L384.754 215.236Z" fill="#2F2E41"/>
<path d="M269.127 257.607C267.236 264.487 261.963 269.137 257.351 267.994C252.738 266.851 250.533 260.348 252.426 253.466C253.143 250.707 254.544 248.151 256.515 246.012L264.915 216.958L279.195 220.99L269.398 249.204C270.016 251.986 269.923 254.867 269.127 257.607Z" fill="#FFB6B6"/>
<path d="M316.181 61.8876C331.962 61.8876 344.755 49.7444 344.755 34.7651C344.755 19.7857 331.962 7.64258 316.181 7.64258C300.4 7.64258 287.607 19.7857 287.607 34.7651C287.607 49.7444 300.4 61.8876 316.181 61.8876Z" fill="#FFB6B6"/>
<path d="M312.754 69.059L342.754 63.3638L375.754 79.5002L382.754 182.963L391.754 221.88L298.754 222.829L302.754 170.623L296.754 88.043L312.754 69.059Z" fill="#E6E6E6"/>
<path d="M305.754 90.8909C305.754 90.8909 289.754 86.1449 283.754 94.6877C277.754 103.23 266.754 180.116 266.754 180.116L255.754 238.017L275.754 240.865L308.754 139.3L305.754 90.8909Z" fill="#E6E6E6"/>
<path d="M451.287 224.33C454.547 230.732 453.71 237.517 449.417 239.486C445.125 241.455 439.004 237.861 435.744 231.457C434.405 228.916 433.726 226.107 433.765 223.266L420.312 195.977L433.938 190.258L445.753 217.767C448.123 219.504 450.021 221.754 451.287 224.33Z" fill="#FFB6B6"/>
<path d="M363.23 80.4843C363.23 80.4843 377.599 72.2897 385.553 79.2479C393.507 86.2061 423.304 158.458 423.304 158.458L448.383 212.263L429.655 219.508L372.346 128.199L363.23 80.4843Z" fill="#E6E6E6"/>
<path d="M432.393 447.3C432.393 447.927 431.863 448.43 431.203 448.43H1.91266C1.25269 448.43 0.722656 447.927 0.722656 447.3C0.722656 446.997 0.842716 446.731 1.04267 446.532H90.7627C92.6727 446.532 94.5427 446.408 96.3827 446.171H431.203C431.863 446.171 432.393 446.674 432.393 447.3Z" fill="#3F3D56"/>
<path d="M256.625 260.598C258.41 256.613 262.022 254.257 264.694 255.336C267.366 256.414 268.084 260.518 266.298 264.504C265.608 266.106 264.523 267.527 263.136 268.649L255.35 285.443L247.125 281.807L255.674 265.637C255.562 263.91 255.889 262.182 256.625 260.598Z" fill="#FFB6B6"/>
<path d="M204.621 289.549C214.779 289.549 223.014 281.732 223.014 272.09C223.014 262.448 214.779 254.632 204.621 254.632C194.463 254.632 186.229 262.448 186.229 272.09C186.229 281.732 194.463 289.549 204.621 289.549Z" fill="#FFB6B6"/>
<path d="M227.754 293.07L245.754 286.426L251.754 266.493L264.754 271.239L254.754 299.715L227.754 309.506V293.07Z" fill="#1760A5"/>
<path d="M202.203 291.502L213.173 283.03C213.173 283.03 212.135 270.333 216.078 269.191C220.022 268.049 224.135 263.488 224.135 263.488C224.135 263.488 217.608 249.493 206.119 251.617C194.63 253.741 197.251 250.51 190.171 254.069C183.091 257.628 181.431 262.377 182.292 267.423C183.153 272.469 180.59 285.005 189.165 285.65C197.741 286.296 202.203 291.502 202.203 291.502Z" fill="#2F2E41"/>
<path d="M298.874 40.8373C296.789 37.2279 297.872 35.5048 295.99 34.0938C295.99 34.0938 295.233 33.526 289.534 32.8028C288.989 23.951 287.479 22.768 287.479 22.768C285.738 21.4046 282.969 21.5947 281.203 22.2139C277.47 23.5237 277.6 26.9743 275.121 27.4448C271.696 28.0946 281.033 22.5376 280.923 16.6592C280.834 11.8641 284.453 7.48784 285.713 7.82943C286.963 8.16814 290.313 4.71402 291.95 4.89536C293.068 5.0192 297.809 3.47658 299.029 3.7178C300.361 3.98126 304.613 6.51587 304.84 6.02769C306.419 2.63534 306.123 1.63843 307.297 0.722751C309.378 -0.899812 312.435 0.571809 317.338 1.60921C327.426 3.74367 329.475 0.685647 334.521 3.2464C337.07 4.53997 339.032 7.65601 342.852 13.8353C348.193 22.4769 350.864 26.7978 350.482 31.5722C350.092 36.4412 347.635 35.9439 345.937 43.0672C344.048 50.9966 346.319 54.8601 343.281 57.2523C340.934 59.1013 321.466 59.2436 319.288 57.2996C315.56 53.9711 321.387 47.0636 317.429 41.3939C314.999 37.9137 309.681 36.0438 307.053 37.4737C304.08 39.0905 305.181 44.5812 303.156 44.9404C301.422 45.248 299.237 41.4663 298.874 40.8373Z" fill="#2F2E41"/>
<path d="M160.383 261.487C164.363 258.295 163.306 250.895 158.022 244.958C155.709 242.359 152.969 240.472 150.286 239.438L147.202 236.06L107.375 188.693C107.375 188.693 85.32 141.573 78.8093 136.482C72.2988 131.392 64.6388 134.042 64.6388 134.042L58.6621 141.061L95.9055 206.852L134.022 243.262L139.167 248.354C139.792 251.038 141.295 253.918 143.608 256.516C148.892 262.453 156.403 264.679 160.383 261.487Z" fill="#FFB6B6"/>
<path d="M85.2045 145.244L95.185 159.137L109.513 179.266L83.7681 187.719L61.0371 150.697L85.2045 145.244Z" fill="#E6E6E6"/>
<path d="M95.3359 97.9583L88.1074 124.117L60.5488 118.971C60.5488 118.971 71.3915 100.102 68.6809 91.5259L95.3359 97.9583Z" fill="#FFB6B6"/>
<path d="M66.2455 438.462L82.8411 438.461L90.7357 377.7L66.2422 377.702L66.2455 438.462Z" fill="#FFB6B6"/>
<path d="M123.104 438.105C123.621 438.931 123.893 441.597 123.893 442.558C123.893 445.51 121.371 447.904 118.261 447.904H66.8662C64.744 447.904 63.0236 446.271 63.0236 444.257V442.226C63.0236 442.226 60.4811 436.121 65.7156 428.597C65.7156 428.597 72.2212 434.489 81.9424 425.261L84.8091 420.332L105.56 434.737L117.062 436.081C119.578 436.375 121.809 436.035 123.104 438.105Z" fill="#2F2E41"/>
<path d="M112.326 262.62L89.4579 410.329H60.7669L64.5819 326.014L66.5898 281.68L60.7669 260.577C60.7669 260.577 58.1119 255.886 55.8753 250.2C53.3543 243.784 51.3631 236.091 54.3192 232.443C55.4068 231.099 58.2346 230.103 62.0776 229.362C64.4257 228.907 67.1588 228.552 70.1093 228.277C87.0762 226.683 111.21 227.679 111.21 227.679L111.824 246.897L112.164 257.628L112.326 262.62Z" fill="#2F2E41"/>
<path d="M37.0117 431.239L53.431 433.528L70.5527 374.504L46.3194 371.124L37.0117 431.239Z" fill="#FFB6B6"/>
<path d="M93.3199 438.735C93.7046 439.624 93.5658 442.299 93.4186 443.25C92.9661 446.171 90.1043 448.191 87.0266 447.762L36.1787 440.666C34.0791 440.373 32.6272 438.52 32.9359 436.527L33.2472 434.517C33.2472 434.517 31.6672 428.127 37.9989 421.406C37.9989 421.406 43.5326 428.132 54.5644 420.345L58.156 415.864L76.4787 432.981L87.6523 435.899C90.0969 436.537 92.3564 436.509 93.3199 438.735Z" fill="#2F2E41"/>
<path d="M112.685 237.987L109.548 263.627L92.4431 317.657L64.2851 406.609L35.9023 402.65L61.3755 276.173L58.8533 254.486C58.8533 254.486 58.0319 252.33 57.0903 249.174C55.2213 242.93 52.8773 232.762 55.4561 227.576C55.8043 226.871 56.2415 226.259 56.7823 225.764C57.7966 224.83 59.8581 224.263 62.6201 223.962C74.1647 222.724 97.9402 226.266 108.52 228.005L112.685 237.987Z" fill="#2F2E41"/>
<path d="M90.8197 116.398L121.993 153.706L116.397 192.603L111.602 232.182L55.1291 224.034C55.1291 224.034 67.3272 196.16 68.6825 194.874C70.0379 193.587 73.4422 196.765 71.0624 192.603C68.6825 188.441 65.9718 188.441 68.2307 186.297C70.4896 184.153 50.6113 156.279 50.6113 141.27C50.6113 126.261 60.0987 114.254 60.0987 114.254L90.8197 116.398Z" fill="#E6E6E6"/>
<path d="M83.5464 102.898C95.1442 102.898 104.546 93.9741 104.546 82.9655C104.546 71.9569 95.1442 63.0327 83.5464 63.0327C71.9487 63.0327 62.5469 71.9569 62.5469 82.9655C62.5469 93.9741 71.9487 102.898 83.5464 102.898Z" fill="#FFB6B6"/>
<path d="M82.5635 121.076C82.5635 121.076 85.7058 97.4758 86.262 90.6126C86.8182 83.7494 97.0246 73.0339 97.0246 73.0339L104.255 78.5773C104.255 78.5773 110.373 78.5773 106.202 70.1302C102.03 61.6832 94.2436 60.3633 94.2436 60.3633C94.2436 60.3633 93.4093 49.2766 78.9482 50.5964C64.4872 51.9163 58.0909 63.003 58.0909 63.003C58.0909 63.003 57.2566 49.0126 48.0794 59.3075C38.9022 69.6023 33.6184 73.8258 43.3518 77.2574C53.0852 80.689 60.3157 78.0493 60.3157 78.0493C60.3157 78.0493 50.8604 79.8971 52.529 86.2324C54.1975 92.5677 30.5593 121.34 41.4051 124.508C52.2509 127.676 76.4453 135.331 79.2263 130.315C82.0073 125.3 82.5635 121.076 82.5635 121.076Z" fill="#2F2E41"/>
<path d="M169.128 263.464C173.137 260.304 172.145 252.896 166.914 246.916C164.624 244.299 161.901 242.39 159.227 241.335L156.173 237.932L116.766 190.251C116.766 190.251 95.1271 142.957 88.6616 137.815C82.1961 132.672 74.513 135.262 74.513 135.262L68.4746 142.233L105.136 208.317L142.929 245.03L148.029 250.163C148.631 252.852 150.108 255.743 152.398 258.36C157.63 264.339 165.12 266.624 169.128 263.464Z" fill="#FFB6B6"/>
<path d="M66.1875 131.596C66.1875 131.596 75.8345 179.115 86.812 186.12L108.687 169.929C108.687 169.929 110.601 169.851 107.039 166.031C103.476 162.211 104.388 154.008 104.388 154.008C104.388 154.008 105.991 155.977 102.503 153.243C99.0143 150.51 102.262 131.713 102.262 131.713L66.1875 131.596Z" fill="#E6E6E6"/>
<path d="M225.516 327.645C225.055 327.645 224.64 327.341 224.539 326.896L223.44 322.048C221.823 314.917 215.333 309.71 207.656 309.385C200.544 309.082 193.953 313.081 191.252 319.331L188.493 325.714C188.284 326.2 187.701 326.431 187.189 326.232C186.678 326.033 186.434 325.479 186.644 324.994L189.402 318.61C192.424 311.622 199.786 307.158 207.746 307.488C216.33 307.852 223.587 313.675 225.395 321.648L226.494 326.496C226.61 327.009 226.267 327.514 225.728 327.624C225.656 327.638 225.585 327.645 225.516 327.645Z" fill="#FFB6B6"/>
<path d="M226.695 343.083C226.666 343.083 226.636 343.082 226.606 343.079L189.601 339.947C189.051 339.9 188.645 339.44 188.693 338.917C188.743 338.395 189.224 338.012 189.778 338.056L226.783 341.188C227.333 341.235 227.739 341.696 227.691 342.218C227.644 342.712 227.208 343.083 226.695 343.083Z" fill="#FFB6B6"/>
</g>
<defs>
<clipPath id="clip0_79_1280">
<rect width="452.553" height="448.43" fill="white" transform="translate(0.722656)"/>
</clipPath>
</defs>
</svg>
