<svg width="444" height="453" viewBox="0 0 444 453" fill="none" xmlns="http://www.w3.org/2000/svg">
<g clip-path="url(#clip0_81_2586)">
<path d="M140.848 347.2H86.043C84.6613 347.2 83.5371 346.181 83.5371 344.929C83.5371 343.677 84.6614 342.659 86.043 342.659H140.848C142.229 342.659 143.353 343.677 143.353 344.929C143.353 346.181 142.229 347.2 140.848 347.2Z" fill="#1760A5"/>
<path d="M42.9688 359.356C42.9688 359.764 43.3302 360.092 43.7804 360.092H183.109C183.559 360.092 183.921 359.764 183.921 359.356C183.921 358.948 183.559 358.621 183.109 358.621H43.7804C43.3302 358.621 42.9688 358.948 42.9688 359.356Z" fill="#3F3D56"/>
<path d="M336.931 211.16C361.414 211.16 381.262 193.173 381.262 170.985C381.262 148.797 361.414 130.81 336.931 130.81C312.447 130.81 292.6 148.797 292.6 170.985C292.6 193.173 312.447 211.16 336.931 211.16Z" fill="#FF6884"/>
<path d="M5.73828 410.122C5.73828 410.53 6.09977 410.858 6.54992 410.858H362.76C363.21 410.858 363.571 410.53 363.571 410.122C363.571 409.714 363.21 409.387 362.76 409.387H6.54992C6.09977 409.387 5.73828 409.714 5.73828 410.122Z" fill="#3F3D56"/>
<path d="M10.8914 360.453L9.75195 359.321L120.964 267.354L161.032 283.632L204.299 216.389L239.847 200.86L272.783 250.608C290.565 208.888 335.16 165.24 388.596 120.956L389.911 121.921C339.793 165.405 296.912 209.087 272.577 253.274L242.112 207.125C240.673 204.944 237.648 204.102 235.107 205.174C215.676 213.368 199.468 226.742 188.651 243.509L161.548 285.52L155.362 283.007C134.671 274.601 110.448 278.124 93.6985 291.975L10.8914 360.453Z" fill="#3F3D56"/>
<path d="M391.103 129.329L389.415 129.435L386.69 124.084L380.59 122.961L380.354 121.442L390.409 120.147L391.103 129.329Z" fill="#3F3D56"/>
<path d="M368.523 449.73H260.485C256.826 449.73 253.85 447.033 253.85 443.717V342.502C253.85 339.186 256.827 336.488 260.485 336.488H368.523C372.182 336.488 375.158 339.186 375.158 342.502V443.717C375.158 447.033 372.182 449.73 368.523 449.73Z" fill="white"/>
<path d="M368.521 450.349H260.484C256.449 450.349 253.166 447.374 253.166 443.717V342.502C253.166 338.845 256.449 335.87 260.484 335.87H368.521C372.556 335.87 375.839 338.845 375.839 342.502V443.717C375.839 447.374 372.556 450.349 368.521 450.349ZM260.484 337.106C257.201 337.106 254.53 339.527 254.53 342.502V443.717C254.53 446.692 257.201 449.112 260.484 449.112H368.521C371.804 449.112 374.475 446.692 374.475 443.717V342.502C374.475 339.527 371.804 337.106 368.521 337.106H260.484Z" fill="#3F3D56"/>
<path d="M318.765 423.14H309.861C308.776 423.14 307.895 422.523 307.895 421.765V387.022C307.895 386.263 308.776 385.646 309.861 385.646H318.765C319.849 385.646 320.731 386.263 320.731 387.022V421.765C320.731 422.523 319.849 423.14 318.765 423.14Z" fill="#1760A5"/>
<path d="M289.327 402.666C288.451 402.666 287.738 403.165 287.738 403.777V421.726C287.738 422.339 288.451 422.837 289.327 422.837H298.231C299.107 422.837 299.82 422.339 299.82 421.726V403.777C299.82 403.165 299.107 402.666 298.231 402.666H289.327Z" fill="#1760A5"/>
<path d="M339.3 423.14H330.396C329.312 423.14 328.43 422.523 328.43 421.765V364.827C328.43 364.069 329.312 363.452 330.396 363.452H339.3C340.384 363.452 341.266 364.069 341.266 364.827V421.765C341.266 422.523 340.384 423.14 339.3 423.14Z" fill="#1760A5"/>
<path d="M114.99 161.362H104.818C103.58 161.362 102.572 160.657 102.572 159.791V120.104C102.572 119.238 103.58 118.533 104.818 118.533H114.99C116.228 118.533 117.235 119.238 117.235 120.104V159.791C117.235 160.657 116.228 161.362 114.99 161.362Z" fill="#1760A5"/>
<path d="M81.3615 137.974C80.361 137.974 79.5469 138.544 79.5469 139.243V159.746C79.5469 160.446 80.361 161.016 81.3615 161.016H91.5329C92.5334 161.016 93.3475 160.446 93.3475 159.746V139.243C93.3475 138.544 92.5334 137.974 91.5329 137.974H81.3615Z" fill="#1760A5"/>
<path d="M138.445 161.362H128.273C127.035 161.362 126.027 160.657 126.027 159.791V94.7517C126.027 93.8854 127.035 93.1807 128.273 93.1807H138.445C139.683 93.1807 140.69 93.8854 140.69 94.7517V159.791C140.69 160.657 139.683 161.362 138.445 161.362Z" fill="#1760A5"/>
<path d="M24.9404 153.021H4.23638C2.8547 153.021 1.73047 152.002 1.73047 150.75C1.73047 149.497 2.85471 148.479 4.23638 148.479H24.9404C26.3221 148.479 27.4458 149.497 27.4458 150.75C27.4458 152.002 26.3221 153.021 24.9404 153.021Z" fill="#E6E6E6"/>
<path d="M24.9404 120.831H4.23638C2.8547 120.831 1.73047 119.812 1.73047 118.56C1.73047 117.308 2.85471 116.29 4.23638 116.29H24.9404C26.3221 116.29 27.4458 117.308 27.4458 118.56C27.4458 119.812 26.3221 120.831 24.9404 120.831Z" fill="#E6E6E6"/>
<path d="M24.9404 97.6182H4.23638C2.8547 97.6182 1.73047 96.5993 1.73047 95.3472C1.73047 94.095 2.85471 93.0767 4.23638 93.0767H24.9404C26.3221 93.0767 27.4458 94.095 27.4458 95.3472C27.4458 96.5993 26.3221 97.6182 24.9404 97.6182Z" fill="#E6E6E6"/>
<path d="M0.900391 161.474C0.900391 161.882 1.26188 162.21 1.71203 162.21H141.041C141.491 162.21 141.853 161.882 141.853 161.474C141.853 161.066 141.491 160.739 141.041 160.739H1.71203C1.26188 160.739 0.900391 161.066 0.900391 161.474Z" fill="#3F3D56"/>
<path d="M302.309 364.042C302.309 364.45 302.67 364.777 303.12 364.777H442.449C442.899 364.777 443.261 364.45 443.261 364.042C443.261 363.634 442.899 363.306 442.449 363.306H303.12C302.67 363.306 302.309 363.634 302.309 364.042Z" fill="#3F3D56"/>
<path d="M261.389 423.995C261.389 424.403 261.75 424.73 262.2 424.73H401.529C401.979 424.73 402.341 424.403 402.341 423.995C402.341 423.587 401.979 423.259 401.529 423.259H262.2C261.75 423.259 261.389 423.587 261.389 423.995Z" fill="#3F3D56"/>
</g>
<path d="M178.704 73.7295H174.33L155.74 134.842C155.74 134.842 155.375 175.474 159.749 195.294C159.749 195.294 167.04 186.706 172.143 186.706C177.246 186.706 181.985 143.431 181.985 143.431C181.985 143.431 202.033 81.6576 178.704 73.7295Z" fill="#E6E6E6"/>
<path d="M274.934 190.682C274.934 190.682 263.27 220.412 274.205 222.394C285.141 224.376 290.973 199.27 288.057 195.967C285.141 192.664 274.934 190.682 274.934 190.682Z" fill="#FEB8B8"/>
<path d="M158.568 184.539C158.568 184.539 161.847 215.952 172.683 213.565C183.52 211.177 177.109 186.187 172.926 184.308C168.744 182.43 158.568 184.539 158.568 184.539Z" fill="#FEB8B8"/>
<path d="M186.727 368.402C186.727 368.402 191.83 390.865 183.082 396.811C174.333 402.757 185.998 415.31 185.998 415.31L213.701 388.883C213.701 388.883 202.036 372.366 202.765 362.456L186.727 368.402Z" fill="#FEB8B8"/>
<path d="M230.467 388.881L227.552 406.719L226.822 419.272L242.861 417.95L245.048 392.184L230.467 388.881Z" fill="#FEB8B8"/>
<path d="M168.737 187.682C168.737 187.682 159.747 190.675 160.476 199.264C161.205 207.853 163.392 234.941 163.392 234.941C163.392 234.941 156.831 293.081 163.392 312.901C169.953 332.721 182.346 372.362 182.346 372.362C182.346 372.362 201.301 375.665 205.675 363.113C205.675 363.113 204.946 320.168 196.927 310.919C188.908 301.669 194.74 299.027 195.469 297.705C196.198 296.384 198.385 294.402 198.385 292.42C198.385 290.438 199.114 283.171 199.114 280.528C199.114 277.885 198.385 278.546 199.843 274.582C201.301 270.618 202.759 269.296 202.759 268.636C202.759 267.975 215.152 232.959 215.152 232.959L231.191 314.222C231.191 314.222 227.546 394.165 229.004 394.165C230.462 394.165 246.501 399.45 252.333 394.165C252.333 394.165 266.913 325.454 263.997 321.49C261.081 317.526 260.352 316.865 261.081 312.901C261.81 308.937 263.268 306.955 261.81 304.973C260.352 302.991 258.165 296.384 260.352 294.402C262.539 292.42 263.268 283.17 263.268 283.17C263.268 283.17 275.662 218.424 267.642 209.175C259.623 199.925 168.737 187.682 168.737 187.682Z" fill="#2F2E41"/>
<path d="M193.286 397.474C193.286 397.474 184.538 387.564 181.621 392.189C178.705 396.813 174.331 404.081 174.331 404.081C174.331 404.081 141.525 429.847 159.751 430.508C177.976 431.169 189.641 419.276 189.641 419.276C189.641 419.276 192.557 406.063 201.305 406.063L202.763 409.366L218.802 400.117C218.802 400.117 216.543 382.575 210.018 383.087L193.286 397.474Z" fill="#2F2E41"/>
<path d="M223.908 417.285C223.908 417.285 242.862 410.678 245.049 417.285C247.236 423.892 247.236 427.195 247.236 427.195C247.236 427.195 263.275 450.98 247.236 452.301C231.198 453.622 223.908 444.373 223.908 444.373C223.908 444.373 226.095 433.141 223.908 431.82C221.721 430.499 223.908 417.285 223.908 417.285Z" fill="#2F2E41"/>
<path d="M237.026 52.6039C251.118 52.6039 262.542 42.2511 262.542 29.4802C262.542 16.7093 251.118 6.35645 237.026 6.35645C222.934 6.35645 211.51 16.7093 211.51 29.4802C211.51 42.2511 222.934 52.6039 237.026 52.6039Z" fill="#FEB8B8"/>
<path d="M218.07 34.7485L212.967 60.515L248.689 68.4431C248.689 68.4431 240.305 49.6138 249.418 41.3553C251.723 39.2661 218.07 34.7485 218.07 34.7485Z" fill="#FEB8B8"/>
<path d="M215.141 49.5459C214.28 49.6928 213.483 50.0569 212.84 50.5963C212.197 51.1357 211.736 51.8284 211.509 52.5949C210.872 54.4931 209.886 56.2802 208.592 57.8804C208.592 57.8804 174.328 72.4153 174.328 74.3973C174.328 76.3794 188.18 118.663 188.18 118.663C188.18 118.663 188.909 145.09 183.077 151.036C177.244 156.982 171.412 178.785 172.87 180.767C174.328 182.749 162.664 187.373 167.038 190.677C171.412 193.98 232.65 225.693 269.102 211.158C269.102 211.158 269.831 205.212 269.102 201.248C268.373 197.284 273.476 184.07 272.018 179.445C270.56 174.82 272.018 127.252 272.018 127.252L279.531 70.9244C279.674 69.8545 279.397 68.7729 278.748 67.8697C278.099 66.9665 277.12 66.2994 275.982 65.9857C267.58 63.6713 248.094 54.196 245.408 56.2287C241.93 58.8605 220.231 57.0678 215.141 49.5459Z" fill="#E6E6E6"/>
<path d="M272.752 65.8077L272.799 65.7909C273.841 65.4118 274.994 65.3582 276.073 65.6386C277.153 65.9189 278.1 66.5172 278.763 67.339C283.28 72.9412 292.787 85.5325 293.894 93.5562C295.352 104.127 299.726 132.536 298.997 136.5C298.268 140.464 297.539 141.125 298.997 143.107C300.455 145.089 299.726 144.428 298.997 146.41C298.268 148.393 289.52 203.229 289.52 203.229C289.52 203.229 283.688 191.337 272.752 195.301C272.752 195.301 274.21 184.73 272.752 181.426C271.294 178.123 269.836 176.141 271.294 173.498C272.752 170.856 271.294 145.089 270.565 142.446C269.836 139.804 270.565 125.929 270.565 125.929L264.004 98.8417L272.752 65.8077Z" fill="#E6E6E6"/>
<path d="M232.265 33.4081L233.127 27.9633C233.328 26.6942 234.148 25.0256 235.51 25.3708C236.669 25.6643 239.194 26.5633 239.616 26.2919C241.199 25.2757 243.595 27.0527 245.259 26.1499C245.957 25.7717 246.412 24.9613 247.222 24.9073C247.766 24.9387 248.279 25.1491 248.663 25.4989C249.744 26.3505 251.017 26.9773 252.394 27.3353C253.084 27.5057 253.812 27.5057 254.503 27.3351C255.193 27.1645 255.821 26.8297 256.321 26.3653C256.497 26.1179 256.735 25.9113 257.015 25.762C257.344 25.6761 257.695 25.6908 258.014 25.8036L262.267 26.8531C262.892 24.7977 263.021 22.6442 262.644 20.5396C262.266 18.4351 261.392 16.4292 260.08 14.6591C258.355 12.5366 256.263 10.6802 253.886 9.1611C251.252 7.34519 248.533 5.63718 245.731 4.03708C242.664 2.28106 239.411 0.624593 235.824 0.130964C232.237 -0.362616 228.221 0.520457 225.965 3.0951C224.904 2.3991 224.106 1.42263 223.682 0.299607C223.429 0.508181 223.229 0.76453 223.098 1.05056C222.966 1.33659 222.905 1.64532 222.92 1.95497C222.934 2.26463 223.023 2.56765 223.181 2.84265C223.339 3.11764 223.561 3.3579 223.832 3.54648L220.235 1.46483C219.224 2.427 221.2 4.17175 220.338 5.24691C220.078 5.51282 219.743 5.71066 219.37 5.8199C217.417 6.50978 215.627 7.53081 214.096 8.82832C212.028 10.7071 210.906 13.2572 209.942 15.7627C207.798 21.3355 206.241 27.7264 209.286 32.9428C209.631 33.5342 214.189 43.2953 214.796 43.676C216.848 44.9626 215.512 41.8487 216.983 43.676C218.136 45.1088 217.92 39.6247 219.634 40.8285C220.306 41.2642 221.103 41.514 221.929 41.5477C222.754 41.5813 223.572 41.3973 224.285 41.018C224.996 40.5714 224.767 38.0914 224.383 35.814C224.31 35.3802 224.355 34.9367 224.515 34.5225C224.675 34.1082 224.944 33.7357 225.3 33.4378C225.655 33.1398 226.086 32.9255 226.554 32.8135C227.022 32.7015 227.514 32.6953 227.985 32.7954C230.12 33.2504 232.229 33.6393 232.265 33.4081Z" fill="#2F2E41"/>
<path opacity="0.1" d="M267.395 86.0278L273.845 152.022C273.845 152.022 260.217 96.6723 267.395 86.0278Z" fill="black"/>
<defs>
<clipPath id="clip0_81_2586">
<rect width="443" height="357.576" fill="white" transform="translate(0.5 92.9834)"/>
</clipPath>
</defs>
</svg>
