<svg width="456" height="445" viewBox="0 0 456 445" fill="none" xmlns="http://www.w3.org/2000/svg">
<g clip-path="url(#clip0_79_1379)">
<path d="M141.006 325.91H84.0123C82.5754 325.91 81.4062 324.74 81.4062 323.303C81.4062 321.867 82.5754 320.698 84.0123 320.698H141.006C142.443 320.698 143.612 321.867 143.612 323.303C143.612 324.74 142.443 325.91 141.006 325.91Z" fill="#1760A5"/>
<path d="M39.2168 339.859C39.2168 340.327 39.5927 340.703 40.0609 340.703H184.956C185.424 340.703 185.8 340.327 185.8 339.859C185.8 339.391 185.424 339.015 184.956 339.015H40.0609C39.5927 339.015 39.2168 339.391 39.2168 339.859Z" fill="#3F3D56"/>
<path d="M344.922 169.8C370.384 169.8 391.024 149.159 391.024 123.698C391.024 98.2363 370.384 77.5957 344.922 77.5957C319.461 77.5957 298.82 98.2363 298.82 123.698C298.82 149.159 319.461 169.8 344.922 169.8Z" fill="#FF6884"/>
<path d="M0.5 398.114C0.5 398.582 0.87593 398.958 1.34406 398.958H371.784C372.252 398.958 372.628 398.582 372.628 398.114C372.628 397.646 372.252 397.27 371.784 397.27H1.34406C0.87593 397.27 0.5 397.646 0.5 398.114Z" fill="#3F3D56"/>
<path d="M5.85883 341.117L4.67383 339.818L120.329 234.283L161.997 252.962L206.993 175.799L243.961 157.98L278.213 215.066C296.705 167.192 343.082 117.104 398.653 66.2871L400.02 67.394C347.899 117.294 303.306 167.42 277.998 218.126L246.316 165.168C244.82 162.666 241.674 161.7 239.031 162.93C218.824 172.332 201.969 187.68 190.72 206.92L162.534 255.129L156.1 252.245C134.583 242.6 109.393 246.642 91.9739 262.537L5.85883 341.117Z" fill="#3F3D56"/>
<path d="M401.259 75.8953L399.503 76.0172L396.67 69.8767L390.326 68.5882L390.08 66.8454L400.537 65.3594L401.259 75.8953Z" fill="#3F3D56"/>
<path d="M220.855 113.467L227.072 89.5673L251.292 88.4023L258.538 121.348L220.855 113.467Z" fill="#FFB6B6"/>
<path opacity="0.1" d="M220.855 113.467L227.072 89.5673L251.292 88.4023L258.538 121.348L220.855 113.467Z" fill="black"/>
<path d="M236.794 102.943C252.939 102.943 266.027 89.8547 266.027 73.7097C266.027 57.5647 252.939 44.4766 236.794 44.4766C220.649 44.4766 207.561 57.5647 207.561 73.7097C207.561 89.8547 220.649 102.943 236.794 102.943Z" fill="#FFB6B6"/>
<path d="M252.922 79.8973C252.922 79.8973 241.817 57.8942 228.805 59.1646C215.794 60.4349 208.939 61.9799 208.939 61.9799C208.939 61.9799 205.077 44.8428 223.261 38.2511C223.261 38.2511 200.14 15.4598 227.667 4.27963C255.194 -6.90052 270.598 7.35834 270.598 7.35834C270.598 7.35834 290.974 27.6995 265.311 42.9028C265.311 42.9028 284.367 68.5346 261.295 89.661C261.295 89.661 266.456 72.565 261.071 75.7178C255.687 78.8706 252.922 79.8973 252.922 79.8973Z" fill="#2F2E41"/>
<path d="M204.54 234.348L200.651 238.075L172.559 298.309L169.484 397.94H216.683L238.823 348.602L253.74 397.464H296.178L306.016 308.764L279.571 246.033L204.54 234.348Z" fill="#2F2E41"/>
<path d="M253.433 111.039H221.912L187.627 129.489L195.622 165.16C195.622 165.16 193.777 186.685 198.082 202.675C202.387 218.665 200.542 239.576 200.542 239.576L279.571 246.033L282.031 173.462L280.801 124.877L253.433 111.039Z" fill="#E6E6E6"/>
<path d="M192.853 129.797C192.853 129.797 173.788 130.412 170.713 142.712C167.638 155.012 165.178 218.358 165.178 218.358C165.178 218.358 167.023 255.946 187.626 238.075C208.228 220.203 206.383 166.082 206.383 166.082L192.853 129.797Z" fill="#E6E6E6"/>
<path d="M377.775 443.566H265.422C261.617 443.566 258.521 440.471 258.521 436.665V320.518C258.521 316.713 261.617 313.617 265.422 313.617H377.775C381.581 313.617 384.676 316.713 384.676 320.518V436.665C384.676 440.471 381.581 443.566 377.775 443.566Z" fill="white"/>
<path d="M377.776 444.275H265.423C261.227 444.275 257.812 440.861 257.812 436.665V320.518C257.812 316.322 261.227 312.908 265.423 312.908H377.776C381.972 312.908 385.386 316.322 385.386 320.518V436.665C385.386 440.861 381.972 444.275 377.776 444.275ZM265.423 314.326C262.008 314.326 259.231 317.104 259.231 320.518V436.665C259.231 440.079 262.009 442.857 265.423 442.857H377.776C381.19 442.857 383.967 440.079 383.967 436.665V320.518C383.967 317.104 381.19 314.326 377.776 314.326H265.423Z" fill="#3F3D56"/>
<path d="M326.033 413.053H316.773C315.646 413.053 314.729 412.345 314.729 411.475V371.606C314.729 370.736 315.646 370.028 316.773 370.028H326.033C327.161 370.028 328.078 370.736 328.078 371.606V411.475C328.078 412.345 327.161 413.053 326.033 413.053Z" fill="#1760A5"/>
<path d="M295.418 389.558C294.507 389.558 293.766 390.13 293.766 390.833V411.43C293.766 412.133 294.507 412.705 295.418 412.705H304.678C305.589 412.705 306.33 412.133 306.33 411.43V390.833C306.33 390.13 305.589 389.558 304.678 389.558H295.418Z" fill="#1760A5"/>
<path d="M347.387 413.053H338.127C336.999 413.053 336.082 412.345 336.082 411.475V346.137C336.082 345.267 336.999 344.559 338.127 344.559H347.387C348.514 344.559 349.431 345.267 349.431 346.137V411.475C349.431 412.345 348.514 413.053 347.387 413.053Z" fill="#1760A5"/>
<path d="M148.115 126.654H137.537C136.249 126.654 135.201 125.846 135.201 124.852V79.3101C135.201 78.316 136.249 77.5073 137.537 77.5073H148.115C149.402 77.5073 150.45 78.316 150.45 79.3101V124.852C150.45 125.846 149.402 126.654 148.115 126.654Z" fill="#1760A5"/>
<path d="M113.143 99.8164C112.102 99.8164 111.256 100.47 111.256 101.273V124.801C111.256 125.604 112.102 126.257 113.143 126.257H123.721C124.761 126.257 125.608 125.604 125.608 124.801V101.273C125.608 100.47 124.761 99.8164 123.721 99.8164H113.143Z" fill="#1760A5"/>
<path d="M172.507 126.654H161.929C160.641 126.654 159.594 125.846 159.594 124.852V50.2174C159.594 49.2232 160.641 48.4146 161.929 48.4146H172.507C173.795 48.4146 174.843 49.2232 174.843 50.2174V124.852C174.843 125.846 173.795 126.654 172.507 126.654Z" fill="#1760A5"/>
<path d="M304.373 330.516C309.852 329.992 313.625 322.588 312.8 313.976C312.518 310.531 311.415 307.204 309.584 304.273L308.528 294.527L308.69 294.478L311.344 248.264C311.961 237.519 307.708 226.96 299.513 219.983C294.638 215.832 289.437 213.73 286.093 218.975C280.544 227.677 287.731 263.549 292.452 283.944L294.282 305.738C293.038 308.964 292.586 312.441 292.963 315.878C293.785 324.487 298.894 331.041 304.373 330.516Z" fill="#FFB6B6"/>
<path d="M274.035 126.107C274.035 126.107 290.025 119.956 297.405 138.407C304.786 156.857 312.781 247.878 312.781 247.878L275.265 241.113L274.035 126.107Z" fill="#E6E6E6"/>
<path d="M54.4692 117.083H32.938C31.5012 117.083 30.332 115.913 30.332 114.477C30.332 113.04 31.5012 111.871 32.938 111.871H54.4692C55.906 111.871 57.0746 113.04 57.0746 114.477C57.0746 115.913 55.906 117.083 54.4692 117.083Z" fill="#E6E6E6"/>
<path d="M54.4692 80.1446H32.938C31.5012 80.1446 30.332 78.9754 30.332 77.5386C30.332 76.1017 31.5012 74.9331 32.938 74.9331H54.4692C55.906 74.9331 57.0746 76.1017 57.0746 77.5386C57.0746 78.9755 55.906 80.1446 54.4692 80.1446Z" fill="#E6E6E6"/>
<path d="M54.4692 53.5069H32.938C31.5012 53.5069 30.332 52.3378 30.332 50.9009C30.332 49.464 31.5012 48.2954 32.938 48.2954H54.4692C55.906 48.2954 57.0746 49.464 57.0746 50.9009C57.0746 52.3378 55.906 53.5069 54.4692 53.5069Z" fill="#E6E6E6"/>
<path d="M29.4688 126.783C29.4688 127.252 29.8447 127.627 30.3128 127.627H175.208C175.676 127.627 176.052 127.252 176.052 126.783C176.052 126.315 175.676 125.939 175.208 125.939H30.3128C29.8447 125.939 29.4688 126.315 29.4688 126.783Z" fill="#3F3D56"/>
<path d="M308.916 345.235C308.916 345.704 309.292 346.079 309.76 346.079H454.655C455.123 346.079 455.499 345.704 455.499 345.235C455.499 344.767 455.123 344.391 454.655 344.391H309.76C309.292 344.391 308.916 344.767 308.916 345.235Z" fill="#3F3D56"/>
<path d="M266.361 414.034C266.361 414.502 266.737 414.878 267.205 414.878H412.1C412.568 414.878 412.944 414.502 412.944 414.034C412.944 413.566 412.568 413.19 412.1 413.19H267.205C266.737 413.19 266.361 413.566 266.361 414.034Z" fill="#3F3D56"/>
<path d="M168.927 122.516C163.448 123.041 159.675 130.444 160.5 139.056C160.782 142.501 161.885 145.828 163.716 148.759L164.772 158.506L164.61 158.554L161.956 204.768C161.339 215.514 165.593 226.072 173.788 233.05C178.663 237.2 183.863 239.302 187.207 234.058C192.757 225.355 185.569 189.483 180.849 169.088L179.019 147.294C180.262 144.068 180.714 140.591 180.338 137.154C179.515 128.545 174.406 121.992 168.927 122.516Z" fill="#FFB6B6"/>
</g>
<defs>
<clipPath id="clip0_79_1379">
<rect width="455" height="444.275" fill="white" transform="translate(0.5)"/>
</clipPath>
</defs>
</svg>
