<svg width="16" height="17" viewBox="0 0 16 17" fill="none" xmlns="http://www.w3.org/2000/svg">
<path fill-rule="evenodd" clip-rule="evenodd" d="M8.6019 2.11032C8.205 2.03094 7.7963 2.03094 7.3994 2.11032C6.51747 2.2867 5.75747 2.84146 5.32068 3.62768L1.19674 11.0508C0.958831 11.479 0.833984 11.9608 0.833984 12.4507C0.833984 14.0427 2.12457 15.3333 3.71659 15.3333H12.2847C13.8767 15.3333 15.1673 14.0427 15.1673 12.4507C15.1673 11.9608 15.0425 11.479 14.8046 11.0508L10.6806 3.62768C10.2438 2.84147 9.48384 2.2867 8.6019 2.11032ZM8.00049 9.66667C7.72435 9.66667 7.50049 9.44281 7.50049 9.16667L7.50049 6.5C7.50049 6.22386 7.72435 6 8.00049 6C8.27663 6 8.50049 6.22386 8.50049 6.5L8.50049 9.16667C8.50049 9.44281 8.27663 9.66667 8.00049 9.66667ZM8.50049 11.5C8.50049 11.7761 8.27663 12 8.00049 12C7.72435 12 7.50049 11.7761 7.50049 11.5L7.50049 11.1667C7.50049 10.8905 7.72435 10.6667 8.00049 10.6667C8.27663 10.6667 8.50049 10.8905 8.50049 11.1667L8.50049 11.5Z" fill="#EF4444"/>
</svg>
