<svg width="16" height="17" viewBox="0 0 16 17" fill="none" xmlns="http://www.w3.org/2000/svg">
<path fill-rule="evenodd" clip-rule="evenodd" d="M0.833984 8.49992C0.833984 4.54188 4.04261 1.33325 8.00065 1.33325C11.9587 1.33325 15.1673 4.54188 15.1673 8.49992C15.1673 12.458 11.9587 15.6666 8.00065 15.6666C4.04261 15.6666 0.833984 12.458 0.833984 8.49992ZM8.83382 7.83325C8.83382 7.55711 8.60996 7.33325 8.33382 7.33325H7.00049C6.72435 7.33325 6.50049 7.55711 6.50049 7.83325C6.50049 8.10939 6.72435 8.33325 7.00049 8.33325H7.83382L7.83382 11.8333C7.83382 12.1094 8.05768 12.3333 8.33382 12.3333C8.60996 12.3333 8.83382 12.1094 8.83382 11.8333L8.83382 7.83325ZM8.83382 5.16659C8.83382 4.89044 8.60996 4.66659 8.33382 4.66659C8.05768 4.66659 7.83382 4.89044 7.83382 5.16659V5.83325C7.83382 6.10939 8.05768 6.33325 8.33382 6.33325C8.60996 6.33325 8.83382 6.10939 8.83382 5.83325V5.16659Z" fill="#D97706"/>
</svg>
