<svg width="17" height="15" viewBox="0 0 17 15" fill="none" xmlns="http://www.w3.org/2000/svg">
<path fill-rule="evenodd" clip-rule="evenodd" d="M3.79787 11.932C2.29987 11.1073 1.06336 9.86775 0.243783 8.36909C-0.0812663 7.77471 -0.0812607 7.05621 0.243798 6.46184C1.76539 3.67958 4.72402 1.79053 8.12498 1.79053C9.79329 1.79053 11.3552 2.2451 12.6932 3.03668L10.5158 5.21404C9.92193 4.56939 9.07063 4.16553 8.125 4.16553C6.33007 4.16553 4.875 5.6206 4.875 7.41553C4.875 8.36116 5.27886 9.21246 5.92351 9.80636L3.79787 11.932ZM5.27273 12.5785C6.16876 12.8781 7.12788 13.0405 8.12503 13.0405C11.526 13.0405 14.4846 11.1515 16.0062 8.36922C16.3313 7.77485 16.3313 7.05634 16.0062 6.46196C15.4756 5.49162 14.7701 4.62992 13.9321 3.9191L11.2676 6.58363C11.3377 6.84915 11.375 7.12798 11.375 7.41553C11.375 9.21045 9.91993 10.6655 8.125 10.6655C7.83745 10.6655 7.55862 10.6282 7.2931 10.5581L5.27273 12.5785ZM8.125 7.41553L6.8918 8.65719C6.57262 8.34017 6.375 7.90093 6.375 7.41553C6.375 6.44903 7.1585 5.66553 8.125 5.66553C8.52357 5.66553 8.89103 5.79877 9.18524 6.02315L8.125 7.41553Z" fill="#333333"/>
<path d="M14.166 0.957031L1.66602 13.457" stroke="#333333" stroke-width="1.5" stroke-linecap="round" stroke-linejoin="round"/>
</svg>
